<svg xmlns="http://www.w3.org/2000/svg" xmlns:xlink="http://www.w3.org/1999/xlink" version="1.1" width="16" height="16" viewBox="0 0 256 256" xml:space="preserve">
<g style="stroke: none; stroke-width: 0; stroke-dasharray: none; stroke-linecap: butt; stroke-linejoin: miter; stroke-miterlimit: 10; fill: none; fill-rule: nonzero; opacity: 1;" transform="translate(1.4065934065934016 1.4065934065934016) scale(2.81 2.81)">
	<path d="M 45 0 C 20.187 0 0 20.187 0 45 c 0 24.813 20.187 45 45 45 c 24.813 0 45 -20.187 45 -45 C 90 20.187 69.813 0 45 0 z M 54.586 71.49 c 0 0.794 -0.47 1.514 -1.198 1.832 c -0.258 0.113 -0.531 0.168 -0.801 0.168 c -0.494 0 -0.98 -0.182 -1.357 -0.531 L 34.848 57.836 H 17 c -1.104 0 -2 -0.895 -2 -2 V 34.164 c 0 -1.104 0.896 -2 2 -2 h 17.848 l 16.381 -15.123 c 0.584 -0.539 1.431 -0.682 2.159 -0.363 c 0.728 0.318 1.198 1.038 1.198 1.832 V 71.49 z M 74.414 49.976 c 0.781 0.781 0.781 2.047 0 2.828 C 74.023 53.195 73.512 53.39 73 53.39 s -1.023 -0.195 -1.414 -0.586 l -4.976 -4.976 l -4.976 4.976 c -0.391 0.391 -0.902 0.586 -1.414 0.586 s -1.023 -0.195 -1.414 -0.586 c -0.781 -0.781 -0.781 -2.047 0 -2.828 L 63.782 45 l -4.976 -4.976 c -0.781 -0.781 -0.781 -2.047 0 -2.828 c 0.781 -0.781 2.047 -0.781 2.828 0 l 4.976 4.976 l 4.976 -4.976 c 0.781 -0.781 2.047 -0.781 2.828 0 c 0.781 0.781 0.781 2.048 0 2.828 L 69.438 45 L 74.414 49.976 z" style="stroke: none; stroke-width: 1; stroke-dasharray: none; stroke-linecap: butt; stroke-linejoin: miter; stroke-miterlimit: 10; fill: rgb(0,0,0); fill-rule: nonzero; opacity: 1;" transform=" matrix(1 0 0 1 0 0) " stroke-linecap="round"/>
</g>
</svg>
