<svg xmlns="http://www.w3.org/2000/svg" xmlns:xlink="http://www.w3.org/1999/xlink" version="1.1" width="16" height="16" viewBox="0 0 256 256" xml:space="preserve">
<g style="stroke: none; stroke-width: 0; stroke-dasharray: none; stroke-linecap: butt; stroke-linejoin: miter; stroke-miterlimit: 10; fill: none; fill-rule: nonzero; opacity: 1;" transform="translate(1.4065934065934016 1.4065934065934016) scale(2.81 2.81)">
	<path d="M 58.221 71.776 c -0.246 0 -0.49 -0.091 -0.679 -0.266 L 41.33 56.544 H 23.593 c -0.552 0 -1 -0.447 -1 -1 V 34.456 c 0 -0.552 0.448 -1 1 -1 H 41.33 l 16.212 -14.967 c 0.293 -0.27 0.719 -0.34 1.08 -0.181 c 0.363 0.159 0.599 0.519 0.599 0.916 v 51.553 c 0 0.397 -0.235 0.757 -0.599 0.916 C 58.493 71.749 58.356 71.776 58.221 71.776 z M 24.593 54.544 h 17.128 c 0.251 0 0.494 0.095 0.678 0.266 l 14.821 13.683 V 21.508 L 42.399 35.191 c -0.185 0.17 -0.427 0.265 -0.678 0.265 H 24.593 V 54.544 z" style="stroke: none; stroke-width: 1; stroke-dasharray: none; stroke-linecap: butt; stroke-linejoin: miter; stroke-miterlimit: 10; fill: rgb(0,0,0); fill-rule: nonzero; opacity: 1;" transform=" matrix(1 0 0 1 0 0) " stroke-linecap="round"/>
	<path d="M 45 90 C 20.187 90 0 69.813 0 45 C 0 20.187 20.187 0 45 0 c 24.813 0 45 20.187 45 45 C 90 69.813 69.813 90 45 90 z M 45 2 C 21.29 2 2 21.29 2 45 c 0 23.71 19.29 43 43 43 c 23.71 0 43 -19.29 43 -43 C 88 21.29 68.71 2 45 2 z" style="stroke: none; stroke-width: 1; stroke-dasharray: none; stroke-linecap: butt; stroke-linejoin: miter; stroke-miterlimit: 10; fill: rgb(0,0,0); fill-rule: nonzero; opacity: 1;" transform=" matrix(1 0 0 1 0 0) " stroke-linecap="round"/>
</g>
</svg>
