<svg width="14" height="14" viewBox="0 0 512 512" fill="none" xmlns="http://www.w3.org/2000/svg">
		<path d="M38.345 423.724H256V88.276H38.345C17.167 88.276 0 105.443 0 126.621V385.38C0 406.557 17.167 423.724 38.345 423.724Z" fill="#007A3D"/>
		<path d="M473.655 423.724C494.832 423.724 512 406.557 512 385.379V126.621C512 105.444 494.833 88.276 473.655 88.276H256V423.724H473.655Z" fill="#007A3D"/>
		<rect width="23.8157" height="22.1267" transform="matrix(0.475872 -0.879514 0.788713 0.614761 308.062 145.946)" fill="white"/>
		<path fillRule="evenodd" clipRule="evenodd" d="M148.615 271.206L151.642 272.455C151.642 272.455 148.187 280.387 146.25 285.624C146.072 286.105 145.906 286.551 145.749 286.974C144.942 289.138 144.361 290.696 143.602 293.23C142.482 296.966 141.679 299.852 141.237 302.993C140.796 306.134 139.894 312.597 139.819 313.324C139.819 313.324 140.733 321.195 141.237 324.677C141.661 327.6 142.985 329.402 144.621 331.63C144.933 332.055 145.257 332.496 145.588 332.964C147.914 336.246 149.579 337.765 152.587 340.116C156.523 343.191 159.29 344.199 163.521 345.739C163.87 345.866 164.229 345.997 164.6 346.133C171.081 348.508 174.961 348.947 181.72 349.538C187.098 350.009 190.153 350.051 195.529 349.538C203.22 348.806 207.6 347.927 214.919 344.997C215.606 344.722 216.273 344.458 216.921 344.202C224.043 341.384 228.931 339.45 234.782 332.964C237.689 329.74 239.349 327.784 241.308 323.655C243.164 319.742 243.686 317.003 244.465 312.918C244.544 312.501 244.626 312.069 244.713 311.621C246.227 303.787 246.261 299.1 245.848 291.073C245.507 284.431 244.925 280.697 243.483 274.271C243.435 274.056 243.388 273.844 243.341 273.635C242.024 267.76 241.219 264.171 238.66 258.719C237.327 255.88 234.782 251.793 234.782 251.793L243.483 229.316L248.118 237.376L252.658 249.069C252.658 249.069 261.951 252.236 268.076 252.815C272.052 253.191 278.291 252.815 278.291 252.815C278.291 252.815 282.917 244.222 286.047 238.852C286.58 237.936 287.086 237.064 287.572 236.228L287.574 236.224C291.322 229.768 293.846 225.422 298.532 218.871C304.623 210.356 308.274 205.728 315.462 198.55C321.388 192.634 324.841 189.385 331.542 184.814C332.756 183.985 333.827 183.182 334.836 182.424C337.875 180.143 340.355 178.282 344.5 177.435C347.923 176.735 349.94 176.972 353.391 177.435C358.504 178.12 361.514 178.87 366.065 181.749C370.158 184.337 372.28 186.433 375.335 190.604C375.458 190.772 375.578 190.935 375.695 191.095C377.557 193.631 378.762 195.272 379.875 198.55C382.212 205.437 380.503 210.717 378.425 217.139L378.423 217.144C377.998 218.459 377.557 219.821 377.132 221.255C375.538 226.635 374.192 229.487 371.646 234.311C368.304 240.64 366.132 244.139 361.431 249.069C355.971 254.795 351.473 256.964 345.594 259.799C344.185 260.478 342.696 261.196 341.095 262.011C335.287 264.966 331.953 266.487 325.867 268.482C320.235 270.327 316.207 270.95 311.474 271.682C309.434 271.997 307.262 272.333 304.774 272.796C302.537 273.212 300.604 273.634 298.788 274.031C294.679 274.928 291.163 275.696 286.047 275.974C282.541 276.165 277.061 275.974 277.061 275.974L269.589 303.674L266.373 297.203L269.589 275.974C269.589 275.974 265.076 276.339 262.211 275.974C259.51 275.63 255.401 274.271 255.401 274.271C255.401 274.271 254.76 292.399 252.658 303.674C251.061 312.241 249.853 317.009 247.078 325.131C246.888 325.685 246.704 326.225 246.525 326.752C243.871 334.547 242.174 339.528 237.714 346.587C233.8 352.781 231.289 356.201 225.985 360.664C219.876 365.806 215.308 367.322 208.642 369.535C207.893 369.784 207.118 370.041 206.312 370.314C198.209 373.048 193.427 373.716 185.03 374.4C184.255 374.464 183.521 374.527 182.818 374.588C177.835 375.019 174.4 375.316 168.951 374.4C162.353 373.292 158.516 372.259 152.587 368.611C147.716 365.612 144.991 363.518 141.237 358.734C136.955 353.276 135.03 349.366 133.008 342.273C131.139 335.711 130.915 331.61 131.022 324.677C131.116 318.577 131.799 315.163 133.008 309.237C134.32 302.809 135.308 299.225 137.643 293.23C139.067 289.575 140.291 287.236 141.767 284.414C142.333 283.333 142.937 282.18 143.602 280.856C145.513 277.053 148.615 271.206 148.615 271.206Z" fill="white" stroke="white"/>
		<path d="M294.821 238.158C290.831 243.396 285.362 252.349 285.362 252.349C285.362 252.349 295.199 252.143 301.442 251.214C308.278 250.196 312.052 249.059 318.751 247.127C326.116 245.002 330.267 243.769 337.384 240.656C343.664 237.909 347.371 236.642 353.085 232.482C358.412 228.604 365.57 220.562 365.57 220.562C365.57 220.562 363.319 217.523 361.787 215.68C357.56 210.598 355.622 206.32 349.964 203.987C344.724 201.827 341.2 202.629 335.776 203.987C329.533 205.55 326.529 208.529 321.021 212.388C315.436 216.301 312.511 218.955 307.495 223.854C302.225 229.001 299.405 232.139 294.821 238.158Z" fill="#007A3D"/>
		</svg>