<svg width="25" height="25" viewBox="0 0 100 100" fill="none" xmlns="http://www.w3.org/2000/svg">
<rect x="1.5" y="1.5" width="97" height="97" rx="8.5" fill="white"/>
<path d="M80.6211 36.9922H54.2188V42.3008H80.6211V36.9922Z" fill="black"/>
<path d="M80.6211 46.0977H54.2188V51.4062H80.6211V46.0977Z" fill="black"/>
<path d="M80.6211 55.2031H54.2188V60.5117H80.6211V55.2031Z" fill="black"/>
<path d="M82.3086 26.832H17.5508C13.0156 26.832 9.32422 30.5234 9.32422 35.0586V64.9062C9.32422 69.4414 13.0156 73.1328 17.5508 73.1328H82.2734C86.8086 73.1328 90.5 69.4414 90.5 64.9062V34.918C90.5352 30.5234 86.8437 26.832 82.3086 26.832ZM82.4141 70.1797H17.5508C14.4922 70.1797 12.1367 67.7188 12.1367 64.7656V34.918C12.1367 31.8594 14.5977 29.5039 17.5508 29.5039H82.2734C85.332 29.5039 87.6875 31.9648 87.6875 34.918V64.7656H87.793C87.8281 67.8594 85.3672 70.1797 82.4141 70.1797Z" fill="black"/>
<path d="M33.5469 50.2813C37.2165 50.2813 40.1914 47.3064 40.1914 43.6367C40.1914 39.967 37.2165 36.9922 33.5469 36.9922C29.8772 36.9922 26.9023 39.967 26.9023 43.6367C26.9023 47.3064 29.8772 50.2813 33.5469 50.2813Z" fill="black"/>
<path d="M41.1406 51.6172H33.5469H25.918C21.6289 51.6172 18.7812 54.8164 18.4297 59.1055V60.4766H48.9102V59.1055C48.2773 54.8164 45.4297 51.6172 41.1406 51.6172Z" fill="black"/>
<rect x="1.5" y="1.5" width="97" height="97" rx="8.5" stroke="black" stroke-width="3"/>
</svg>
