<svg width="25" height="25" viewBox="0 0 300 300" fill="none" xmlns="http://www.w3.org/2000/svg">
<rect width="25" height="25" rx="18" fill="#0087D3"/>
<path d="M150 5L182.555 105.193H287.903L202.674 167.115L235.229 267.307L150 205.385L64.7711 267.307L97.3257 167.115L12.0968 105.193H117.445L150 5Z" fill="#FF9D2A"/>
<path d="M147.477 75.5568C155.953 75.5568 163.978 76.9063 171.554 79.6051C179.13 82.2566 185.83 86.447 191.653 92.1761C197.525 97.9053 202.117 105.386 205.432 114.619C208.794 123.805 210.498 134.932 210.545 148C210.593 159.932 209.101 170.656 206.071 180.173C203.088 189.643 198.803 197.716 193.216 204.392C187.676 211.068 181 216.182 173.188 219.733C165.422 223.237 156.758 224.989 147.193 224.989C136.445 224.989 126.999 222.929 118.855 218.81C110.711 214.69 104.224 209.151 99.3949 202.19C94.5654 195.23 91.7481 187.489 90.9432 178.966H129.864C130.811 183.369 132.894 186.565 136.114 188.554C139.333 190.495 143.027 191.466 147.193 191.466C155.527 191.466 161.611 187.867 165.446 180.67C169.329 173.426 171.294 163.767 171.341 151.693H170.489C168.642 156.144 165.849 159.956 162.108 163.128C158.367 166.3 154.011 168.739 149.04 170.443C144.068 172.148 138.813 173 133.273 173C124.513 173 116.843 171.035 110.261 167.105C103.68 163.128 98.5426 157.706 94.8494 150.841C91.1563 143.928 89.286 136.068 89.2387 127.261C89.1913 116.939 91.6298 107.896 96.554 100.131C101.478 92.3655 108.32 86.3286 117.08 82.0199C125.839 77.7112 135.972 75.5568 147.477 75.5568ZM147.761 105.386C143.831 105.386 140.328 106.286 137.25 108.085C134.22 109.884 131.829 112.323 130.077 115.401C128.372 118.478 127.544 121.958 127.591 125.841C127.638 129.723 128.514 133.204 130.219 136.281C131.971 139.359 134.338 141.797 137.321 143.597C140.351 145.396 143.831 146.295 147.761 146.295C150.65 146.295 153.325 145.798 155.787 144.804C158.249 143.762 160.38 142.318 162.179 140.472C164.026 138.578 165.446 136.4 166.44 133.938C167.482 131.428 167.979 128.729 167.932 125.841C167.884 121.958 166.985 118.478 165.233 115.401C163.481 112.323 161.09 109.884 158.06 108.085C155.029 106.286 151.597 105.386 147.761 105.386Z" fill="white"/>
</svg>
