<svg width="25" height="25" viewBox="0 0 200 200" fill="none" xmlns="http://www.w3.org/2000/svg">
	<rect x="1" y="1" width="198" height="198" rx="19" fill="white"/>
	<rect x="1" y="1" width="198" height="198" rx="19" stroke="black" stroke-width="2"/>
		<g mask="url(#mask0_20_2)">
			<path fill-rule="evenodd" clip-rule="evenodd" d="M103.46 35.3437C101.85 32.5536 98.2821 31.5977 95.492 33.2085L60.1339 53.6225L51.8365 39.2511C50.9313 37.6831 49.3493 36.6244 47.5546 36.3854L36.6032 34.9272C33.4097 34.502 30.4762 36.7461 30.051 39.9396C29.6258 43.1331 31.8699 46.0666 35.0633 46.4919L43.1686 47.5711L52.8211 64.2897C52.8598 64.3637 52.9001 64.4373 52.9423 64.5103L76.2756 104.925L76.2947 104.958L90.9624 130.363C83.1015 136.536 80.7692 147.708 85.912 156.615C91.5498 166.38 104.037 169.726 113.802 164.088C120.855 160.016 124.559 152.37 123.948 144.759L166.064 120.443C168.854 118.832 169.81 115.265 168.2 112.475C166.589 109.684 163.021 108.728 160.231 110.34L136.898 69.9246C135.286 67.1346 131.719 66.1786 128.929 67.7895L123.877 70.7062L103.46 35.3437ZM83.4671 94.0371L65.9672 63.7261L76.0663 57.8954L78.9829 62.9473C80.5938 65.7373 84.1614 66.6933 86.9515 65.0825C89.7415 63.4716 90.6976 59.904 89.0864 57.1139L86.1699 52.0621L96.2736 46.2288L113.774 76.5395L83.4671 94.0371ZM104.451 95.3934L107.368 100.445C108.979 103.235 112.546 104.191 115.336 102.58C118.126 100.969 119.083 97.4018 117.472 94.6117L114.555 89.5601L124.659 83.7267L124.702 83.7014L129.71 80.8098L150.127 116.172L119.637 133.776C115.345 128.31 108.636 125.517 101.951 126.052L89.3005 104.14L104.451 95.3934ZM96.9416 140.718C94.5989 143.458 94.1106 147.483 96.0158 150.782C96.3133 151.298 96.6557 151.771 97.0349 152.202C99.6896 155.212 104.152 156.075 107.79 154.085C107.85 154.052 107.909 154.019 107.968 153.985C112.153 151.568 113.588 146.217 111.171 142.032C108.755 137.847 103.403 136.413 99.2183 138.829C98.3328 139.341 97.5704 139.983 96.9416 140.718Z" fill="black"/>
		</g>
	<defs>
		<clipPath id="clip0_20_2">
			<rect width="140" height="140"  transform="translate(30 30)"/>
		</clipPath>
	</defs>
</svg>
