<svg width="25" height="25" viewBox="0 0 100 100" fill="none" xmlns="http://www.w3.org/2000/svg">
  <title>Driver has own operating authority</title>
  <rect width="100" height="100" rx="14.6" fill="#F69D18"/>
  <path d="M4.56152 66V34.5059H14.8706C18.6779 34.5059 21.9743 35.1497 24.7598 36.4375C27.5452 37.7253 29.7008 39.5449 31.2266 41.8965C32.7523 44.248 33.5151 47.0335 33.5151 50.2529C33.5151 53.4583 32.7523 56.2438 31.2266 58.6094C29.7008 60.9609 27.5452 62.7806 24.7598 64.0684C21.9743 65.3561 18.6779 66 14.8706 66H4.56152ZM11.0283 60.3521H15.1016C17.6211 60.3521 19.7557 59.9601 21.5054 59.1763C23.269 58.3784 24.6058 57.2306 25.5156 55.7329C26.4395 54.2212 26.9014 52.3945 26.9014 50.2529C26.9014 48.0973 26.4395 46.2707 25.5156 44.7729C24.6058 43.2752 23.269 42.1344 21.5054 41.3506C19.7557 40.5527 17.6211 40.1538 15.1016 40.1538H11.0283V60.3521ZM53.0625 66.6299C50.6689 66.6299 48.4574 66.224 46.4277 65.4121C44.4121 64.5863 42.6554 63.4385 41.1577 61.9688C39.674 60.485 38.5192 58.7493 37.6934 56.7617C36.8815 54.7741 36.4756 52.6045 36.4756 50.2529C36.4756 47.9014 36.8815 45.7318 37.6934 43.7441C38.5192 41.7425 39.674 40.0068 41.1577 38.5371C42.6554 37.0674 44.4121 35.9266 46.4277 35.1147C48.4574 34.2889 50.6689 33.876 53.0625 33.876C55.4561 33.876 57.6606 34.2889 59.6763 35.1147C61.6919 35.9266 63.4346 37.0674 64.9043 38.5371C66.388 40.0068 67.5428 41.7425 68.3687 43.7441C69.1945 45.7318 69.6074 47.9014 69.6074 50.2529C69.6074 52.6045 69.1945 54.7741 68.3687 56.7617C67.5428 58.7493 66.388 60.485 64.9043 61.9688C63.4346 63.4385 61.6919 64.5863 59.6763 65.4121C57.6606 66.224 55.4561 66.6299 53.0625 66.6299ZM53.0625 60.9819C54.4762 60.9819 55.785 60.709 56.9888 60.1631C58.2065 59.6172 59.2633 58.8613 60.1592 57.8955C61.055 56.9157 61.7479 55.7819 62.2378 54.4941C62.7417 53.1924 62.9937 51.7786 62.9937 50.2529C62.9937 48.7272 62.7417 47.3135 62.2378 46.0117C61.7479 44.71 61.055 43.5762 60.1592 42.6104C59.2633 41.6305 58.2065 40.8747 56.9888 40.3428C55.785 39.7969 54.4762 39.5239 53.0625 39.5239C51.6348 39.5239 50.312 39.7969 49.0942 40.3428C47.8905 40.8747 46.8337 41.6305 45.9238 42.6104C45.028 43.5762 44.3281 44.71 43.8242 46.0117C43.3343 47.3135 43.0894 48.7272 43.0894 50.2529C43.0894 51.7786 43.3343 53.1924 43.8242 54.4941C44.3281 55.7959 45.028 56.9367 45.9238 57.9165C46.8337 58.8823 47.8905 59.6382 49.0942 60.1841C50.312 60.716 51.6348 60.9819 53.0625 60.9819ZM86.6143 66H80.1475V40.1538H70.8672V34.5059H95.9155V40.1538H86.6143V66Z" fill="white"/>
</svg>
