<svg width="25" height="25" viewBox="0 0 102 102" fill="none" xmlns="http://www.w3.org/2000/svg">
<g clip-path="url(#clip0_1_2)">
<path d="M90.78 1H11.22C5.57565 1 1 5.57565 1 11.22V90.78C1 96.4243 5.57565 101 11.22 101H90.78C96.4243 101 101 96.4243 101 90.78V11.22C101 5.57565 96.4243 1 90.78 1Z" stroke="#1D1D1B" stroke-width="3" stroke-miterlimit="10"/>
<path d="M93 33L9 34V28L93 30V33Z" stroke="#1D1D1B" stroke-width="0.75" stroke-miterlimit="10"/>
<path d="M50 32.5C50.2761 32.5 50.5 32.0523 50.5 31.5C50.5 30.9477 50.2761 30.5 50 30.5C49.7239 30.5 49.5 30.9477 49.5 31.5C49.5 32.0523 49.7239 32.5 50 32.5Z" fill="#1D1D1B" stroke="#1D1D1B" stroke-width="0.25" stroke-miterlimit="10"/>
<path d="M42 32.5C42.2761 32.5 42.5 32.0523 42.5 31.5C42.5 30.9477 42.2761 30.5 42 30.5C41.7239 30.5 41.5 30.9477 41.5 31.5C41.5 32.0523 41.7239 32.5 42 32.5Z" fill="#1D1D1B" stroke="#1D1D1B" stroke-width="0.25" stroke-miterlimit="10"/>
<path d="M33 32.5C33.2761 32.5 33.5 32.0523 33.5 31.5C33.5 30.9477 33.2761 30.5 33 30.5C32.7239 30.5 32.5 30.9477 32.5 31.5C32.5 32.0523 32.7239 32.5 33 32.5Z" fill="#1D1D1B" stroke="#1D1D1B" stroke-width="0.25" stroke-miterlimit="10"/>
<path d="M24 32.5C24.2761 32.5 24.5 32.0523 24.5 31.5C24.5 30.9477 24.2761 30.5 24 30.5C23.7239 30.5 23.5 30.9477 23.5 31.5C23.5 32.0523 23.7239 32.5 24 32.5Z" fill="#1D1D1B" stroke="#1D1D1B" stroke-width="0.25" stroke-miterlimit="10"/>
<path d="M14 32.5C14.2761 32.5 14.5 32.0523 14.5 31.5C14.5 30.9477 14.2761 30.5 14 30.5C13.7239 30.5 13.5 30.9477 13.5 31.5C13.5 32.0523 13.7239 32.5 14 32.5Z" fill="#1D1D1B" stroke="#1D1D1B" stroke-width="0.25" stroke-miterlimit="10"/>
<path d="M13 75.5C13.2761 75.5 13.5 75.0523 13.5 74.5C13.5 73.9477 13.2761 73.5 13 73.5C12.7239 73.5 12.5 73.9477 12.5 74.5C12.5 75.0523 12.7239 75.5 13 75.5Z" fill="#1D1D1B" stroke="#1D1D1B" stroke-width="0.25" stroke-miterlimit="10"/>
<path d="M25 73.5C25.2761 73.5 25.5 73.0523 25.5 72.5C25.5 71.9477 25.2761 71.5 25 71.5C24.7239 71.5 24.5 71.9477 24.5 72.5C24.5 73.0523 24.7239 73.5 25 73.5Z" fill="#1D1D1B" stroke="#1D1D1B" stroke-width="0.25" stroke-miterlimit="10"/>
<path d="M70 66.5C70.2761 66.5 70.5 66.0523 70.5 65.5C70.5 64.9477 70.2761 64.5 70 64.5C69.7239 64.5 69.5 64.9477 69.5 65.5C69.5 66.0523 69.7239 66.5 70 66.5Z" fill="#1D1D1B" stroke="#1D1D1B" stroke-width="0.25" stroke-miterlimit="10"/>
<path d="M77 65.5C77.2761 65.5 77.5 65.0523 77.5 64.5C77.5 63.9477 77.2761 63.5 77 63.5C76.7239 63.5 76.5 63.9477 76.5 64.5C76.5 65.0523 76.7239 65.5 77 65.5Z" fill="#1D1D1B" stroke="#1D1D1B" stroke-width="0.25" stroke-miterlimit="10"/>
<path d="M83 64.5C83.2761 64.5 83.5 64.0523 83.5 63.5C83.5 62.9477 83.2761 62.5 83 62.5C82.7239 62.5 82.5 62.9477 82.5 63.5C82.5 64.0523 82.7239 64.5 83 64.5Z" fill="#1D1D1B" stroke="#1D1D1B" stroke-width="0.25" stroke-miterlimit="10"/>
<path d="M90 63.5C90.2761 63.5 90.5 63.0523 90.5 62.5C90.5 61.9477 90.2761 61.5 90 61.5C89.7239 61.5 89.5 61.9477 89.5 62.5C89.5 63.0523 89.7239 63.5 90 63.5Z" fill="#1D1D1B" stroke="#1D1D1B" stroke-width="0.25" stroke-miterlimit="10"/>
<path d="M40 71.5C40.2761 71.5 40.5 71.0523 40.5 70.5C40.5 69.9477 40.2761 69.5 40 69.5C39.7239 69.5 39.5 69.9477 39.5 70.5C39.5 71.0523 39.7239 71.5 40 71.5Z" fill="#1D1D1B" stroke="#1D1D1B" stroke-width="0.25" stroke-miterlimit="10"/>
<path d="M51 69.5C51.2761 69.5 51.5 69.0523 51.5 68.5C51.5 67.9477 51.2761 67.5 51 67.5C50.7239 67.5 50.5 67.9477 50.5 68.5C50.5 69.0523 50.7239 69.5 51 69.5Z" fill="#1D1D1B" stroke="#1D1D1B" stroke-width="0.25" stroke-miterlimit="10"/>
<path d="M61 67.5C61.2761 67.5 61.5 67.0523 61.5 66.5C61.5 65.9477 61.2761 65.5 61 65.5C60.7239 65.5 60.5 65.9477 60.5 66.5C60.5 67.0523 60.7239 67.5 61 67.5Z" fill="#1D1D1B" stroke="#1D1D1B" stroke-width="0.25" stroke-miterlimit="10"/>
<path d="M57 32.5C57.2761 32.5 57.5 32.0523 57.5 31.5C57.5 30.9477 57.2761 30.5 57 30.5C56.7239 30.5 56.5 30.9477 56.5 31.5C56.5 32.0523 56.7239 32.5 57 32.5Z" fill="#1D1D1B" stroke="#1D1D1B" stroke-width="0.25" stroke-miterlimit="10"/>
<path d="M64 32.5C64.2761 32.5 64.5 32.0523 64.5 31.5C64.5 30.9477 64.2761 30.5 64 30.5C63.7239 30.5 63.5 30.9477 63.5 31.5C63.5 32.0523 63.7239 32.5 64 32.5Z" fill="#1D1D1B" stroke="#1D1D1B" stroke-width="0.25" stroke-miterlimit="10"/>
<path d="M70 32.5C70.2761 32.5 70.5 32.0523 70.5 31.5C70.5 30.9477 70.2761 30.5 70 30.5C69.7239 30.5 69.5 30.9477 69.5 31.5C69.5 32.0523 69.7239 32.5 70 32.5Z" fill="#1D1D1B" stroke="#1D1D1B" stroke-width="0.25" stroke-miterlimit="10"/>
<path d="M76 32.5C76.2761 32.5 76.5 32.0523 76.5 31.5C76.5 30.9477 76.2761 30.5 76 30.5C75.7239 30.5 75.5 30.9477 75.5 31.5C75.5 32.0523 75.7239 32.5 76 32.5Z" fill="#1D1D1B" stroke="#1D1D1B" stroke-width="0.25" stroke-miterlimit="10"/>
<path d="M82 32.5C82.2761 32.5 82.5 32.0523 82.5 31.5C82.5 30.9477 82.2761 30.5 82 30.5C81.7239 30.5 81.5 30.9477 81.5 31.5C81.5 32.0523 81.7239 32.5 82 32.5Z" fill="#1D1D1B" stroke="#1D1D1B" stroke-width="0.25" stroke-miterlimit="10"/>
<path d="M87 32.5C87.2761 32.5 87.5 32.0523 87.5 31.5C87.5 30.9477 87.2761 30.5 87 30.5C86.7239 30.5 86.5 30.9477 86.5 31.5C86.5 32.0523 86.7239 32.5 87 32.5Z" fill="#1D1D1B" stroke="#1D1D1B" stroke-width="0.25" stroke-miterlimit="10"/>
<path d="M92 32.5C92.2761 32.5 92.5 32.0523 92.5 31.5C92.5 30.9477 92.2761 30.5 92 30.5C91.7239 30.5 91.5 30.9477 91.5 31.5C91.5 32.0523 91.7239 32.5 92 32.5Z" fill="#1D1D1B" stroke="#1D1D1B" stroke-width="0.25" stroke-miterlimit="10"/>
<path d="M93 64L9 79V72L93 60V64Z" stroke="#1D1D1B" stroke-width="0.75" stroke-miterlimit="10"/>
<path d="M20 65L15 66V41H20C19.1504 42.5876 18.4797 44.2645 18 46C15.69 54.39 18.5 61.82 20 65Z" stroke="#1D1D1B" stroke-miterlimit="10"/>
<path d="M30 63.56L24.5 64.5V41H30C29.0779 42.4712 28.3391 44.0496 27.8 45.7C25.25 53.58 28.38 60.57 30 63.56Z" stroke="#1D1D1B" stroke-miterlimit="10"/>
<path d="M39 62.6L34 63.5V41H39C38.1572 42.4154 37.4859 43.926 37 45.5C34.69 53.05 37.5 59.73 39 62.6Z" stroke="#1D1D1B" stroke-miterlimit="10"/>
<path d="M47.5 61.64L43 62.5V41H47.5C46.7368 42.3594 46.1328 43.8023 45.7 45.3C43.62 52.5 46.18 58.9 47.5 61.64Z" stroke="#1D1D1B" stroke-miterlimit="10"/>
<path d="M54 60.68L50 61.5V41H54C53.3194 42.3045 52.7829 43.6793 52.4 45.1C51.1402 50.3238 51.7048 55.8213 54 60.68V60.68Z" stroke="#1D1D1B" stroke-miterlimit="10"/>
<path d="M60.5 59.72L57 60.5V41H60.5C59.9059 42.2507 59.437 43.557 59.1 44.9C57.9959 49.8643 58.4858 55.0503 60.5 59.72V59.72Z" stroke="#1D1D1B" stroke-miterlimit="10"/>
<path d="M66 58.76L63 59.5V41H66C65.4814 42.1917 65.0795 43.4308 64.8 44.7C63.8529 49.4053 64.2692 54.2832 66 58.76Z" stroke="#1D1D1B" stroke-miterlimit="10"/>
<path d="M73.5 57.8L70 58.5V41H73.5C72.9085 42.1128 72.4391 43.2863 72.1 44.5C70.999 48.9608 71.4943 53.6662 73.5 57.8V57.8Z" stroke="#1D1D1B" stroke-miterlimit="10"/>
<path d="M80 56.84L76 57.5V41H80C79.3327 42.0299 78.7953 43.1383 78.4 44.3C76.55 49.83 78.82 54.74 80 56.84Z" stroke="#1D1D1B" stroke-miterlimit="10"/>
<path d="M85.5 55.88L82 56.5V41H85.5C84.9139 41.9751 84.444 43.0155 84.1 44.1C83.0027 48.0582 83.5055 52.2892 85.5 55.88V55.88Z" stroke="#1D1D1B" stroke-miterlimit="10"/>
<path d="M90.5 54.92L87.5 55.5V41H90.5C89.9893 41.9171 89.5867 42.8902 89.3 43.9C88.3587 47.5979 88.7849 51.5114 90.5 54.92V54.92Z" stroke="#1D1D1B" stroke-miterlimit="10"/>
</g>
<defs>
<clipPath id="clip0_1_2">
<rect width="102" height="102" fill="white"/>
</clipPath>
</defs>
</svg>
