<svg width="200" height="200" viewBox="0 0 200 200" fill="none" xmlns="http://www.w3.org/2000/svg">
<rect width="200" height="200" rx="20" fill="#FF8B8B"/>
<mask id="mask0_75_2545" style="mask-type:luminance" maskUnits="userSpaceOnUse" x="25" y="25" width="150" height="150">
<path d="M175 25H25V175H175V25Z" fill="white"/>
</mask>
<g mask="url(#mask0_75_2545)">
<path d="M158.5 26.4707H41.5C33.1995 26.4707 26.4706 33.1996 26.4706 41.5001V158.5C26.4706 166.801 33.1995 173.53 41.5 173.53H158.5C166.8 173.53 173.529 166.801 173.529 158.5V41.5001C173.529 33.1996 166.8 26.4707 158.5 26.4707Z" stroke="#1D1D1B" stroke-width="3" stroke-miterlimit="10"/>
<path d="M124.265 97.0589C135.229 97.0589 144.118 88.1704 144.118 77.206C144.118 66.2416 135.229 57.353 124.265 57.353C113.3 57.353 104.412 66.2416 104.412 77.206C104.412 88.1704 113.3 97.0589 124.265 97.0589Z" fill="#1D1D1B" stroke="#1D1D1B" stroke-width="2" stroke-miterlimit="10"/>
<path d="M80.8823 98.5293C96.3138 98.5293 108.824 86.0196 108.824 70.5882C108.824 55.1567 96.3138 42.647 80.8823 42.647C65.4509 42.647 52.9412 55.1567 52.9412 70.5882C52.9412 86.0196 65.4509 98.5293 80.8823 98.5293Z" fill="#FF8B8B" stroke="#1D1D1B" stroke-width="2" stroke-miterlimit="10"/>
<path d="M136.765 102.941H119.118C105.311 102.941 94.1177 114.134 94.1177 127.941V138.236C94.1177 152.043 105.311 163.236 119.118 163.236H136.765C150.572 163.236 161.765 152.043 161.765 138.236V127.941C161.765 114.134 150.572 102.941 136.765 102.941Z" fill="#1D1D1B" stroke="#1D1D1B" stroke-width="2" stroke-miterlimit="10"/>
<path d="M97.0589 102.941H64.7059C50.8989 102.941 39.7059 114.134 39.7059 127.941V141.177C39.7059 154.984 50.8989 166.177 64.7059 166.177H97.0589C110.866 166.177 122.059 154.984 122.059 141.177V127.941C122.059 114.134 110.866 102.941 97.0589 102.941Z" fill="#FF8B8B" stroke="#1D1D1B" stroke-width="2" stroke-miterlimit="10"/>
<path d="M158.853 147.059H39.6764C35.6318 147.059 32.3529 150.337 32.3529 154.382V160.323C32.3529 164.368 35.6318 167.647 39.6764 167.647H158.853C162.898 167.647 166.176 164.368 166.176 160.323V154.382C166.176 150.337 162.898 147.059 158.853 147.059Z" fill="#FF8B8B" stroke="#FF8B8B" stroke-width="2" stroke-miterlimit="10"/>
</g>
</svg>