<svg width="160" height="177" viewBox="0 0 160 177" fill="none" xmlns="http://www.w3.org/2000/svg">
<path d="M0 40L78.5 0.5L160 40V138L78.5 177L0 138V40Z" fill="#D9D9D9"/>
<path d="M153.5 44.792V134.668L78.6162 170.443L6.5 134.672V44.7871L78.6162 8.55762L153.5 44.792Z" fill="#D9D9D9" stroke="#192847"/>
<g clip-path="url(#clip0_30_78)">
<path d="M105.455 53H101.604C101.335 52.252 101.025 51.5178 100.675 50.8007L103.399 48.1257C104.393 47.1495 104.393 45.5665 103.399 44.5902L96.1993 37.519C95.7219 37.0502 95.0745 36.7867 94.3993 36.7867C93.7242 36.7867 93.0768 37.05 92.5995 37.519L89.8757 40.194C89.1455 39.8507 88.398 39.546 87.6364 39.2813V35.5C87.6364 34.1193 86.4967 33 85.0909 33H74.9091C73.5033 33 72.3636 34.1193 72.3636 35.5V39.2815C71.602 39.5462 70.8545 39.8508 70.1245 40.1942L67.4007 37.5192C66.4066 36.5428 64.795 36.5428 63.8009 37.5192L56.6012 44.59C56.1238 45.0588 55.8555 45.6947 55.8555 46.3578C55.8555 47.0208 56.1236 47.6567 56.6012 48.1255L59.3248 50.8007C58.9752 51.5178 58.6652 52.252 58.3955 53H54.5455C53.1397 53 52 54.1193 52 55.5V65.5C52 66.8807 53.1397 68 54.5455 68H58.3957C58.6652 68.748 58.9752 69.4822 59.325 70.1993L56.6013 72.8745C56.1238 73.3433 55.8557 73.9792 55.8557 74.6422C55.8557 75.3053 56.124 75.9412 56.6013 76.41L63.8012 83.481C64.7953 84.4572 66.4069 84.4572 67.401 83.481L70.1248 80.806C70.8549 81.1493 71.6024 81.454 72.3638 81.7187V85.5C72.3638 86.8807 73.5035 88 74.9093 88H85.0911C86.4969 88 87.6365 86.8807 87.6365 85.5V81.7185C88.3981 81.4538 89.1457 81.1492 89.8759 80.8058L92.5997 83.4808C93.5937 84.457 95.2054 84.4572 96.1994 83.4808L103.399 76.4098C104.393 75.4335 104.393 73.8507 103.399 72.8743L100.675 70.1993C101.025 69.4822 101.335 68.7478 101.605 68H105.455C106.86 68 108 66.8807 108 65.5V55.5C108 54.1193 106.86 53 105.455 53ZM102.909 63H99.722C98.5604 63 97.5462 63.7723 97.2568 64.8772C96.8436 66.4557 96.2025 67.9728 95.3516 69.387C94.7608 70.3692 94.9218 71.6198 95.7433 72.4265L97.9991 74.6422L94.3995 78.1777L92.1435 75.9622C91.322 75.1557 90.0488 74.9973 89.0489 75.5775C87.6096 76.4127 86.0645 77.0423 84.4564 77.4488C83.3317 77.7332 82.5455 78.7292 82.5455 79.8698V83H77.4545V79.8698C77.4545 78.7292 76.6683 77.7332 75.5436 77.4488C73.936 77.0423 72.391 76.4128 70.9514 75.5775C69.9514 74.9973 68.6782 75.1553 67.8568 75.9622L65.6009 78.1777L62.0009 74.6422L64.2567 72.4267C65.078 71.62 65.2392 70.3695 64.6484 69.3873C63.7978 67.9737 63.1569 66.4562 62.743 64.877C62.4537 63.7722 61.4394 63 60.278 63H57.0909V58H60.278C61.4394 58 62.4535 57.2278 62.743 56.1232C63.1569 54.544 63.798 53.0265 64.6484 51.6128C65.2392 50.6307 65.078 49.3802 64.2567 48.5735L62.0009 46.3578L65.6007 42.8223L67.8567 45.0378C68.678 45.8447 69.9514 46.003 70.9514 45.4225C72.3908 44.5873 73.9357 43.9577 75.5436 43.5512C76.6683 43.2668 77.4545 42.2708 77.4545 41.1302V38H82.5455V41.1302C82.5455 42.2708 83.3317 43.2668 84.4564 43.5512C86.0645 43.9577 87.6096 44.5873 89.0488 45.4225C90.0486 46.0028 91.3222 45.8447 92.1435 45.0378L94.3995 42.8223L97.9991 46.3578L95.7433 48.5735C94.9218 49.3802 94.7608 50.6308 95.3516 51.613C96.2025 53.027 96.8434 54.5443 97.2568 56.1228C97.5462 57.2277 98.5604 58 99.722 58H102.909V63Z" fill="#192847"/>
<path d="M80.0001 50.5C74.3858 50.5 69.8182 54.986 69.8182 60.5C69.8182 66.014 74.3858 70.5 80.0001 70.5C85.6143 70.5 90.1819 66.014 90.1819 60.5C90.1819 54.986 85.6143 50.5 80.0001 50.5ZM80.0001 65.5C77.1929 65.5 74.9091 63.257 74.9091 60.5C74.9091 57.743 77.1929 55.5 80.0001 55.5C82.8072 55.5 85.091 57.743 85.091 60.5C85.091 63.257 82.8072 65.5 80.0001 65.5Z" fill="#192847"/>
</g>
<path d="M123.366 96.1125C121.985 95.535 120.377 95.197 118.694 95.197C116.804 95.197 115.012 95.6203 113.408 96.3783L113.483 96.3455L94.524 104.864C94.5339 104.709 94.6093 104.575 94.6093 104.421C94.5634 99.922 90.9048 96.293 86.3996 96.293C86.1732 96.293 85.9534 96.3028 85.7303 96.3192L85.7598 96.3159H73.3468L57.7281 91.7419C57.5246 91.6795 57.2884 91.6434 57.0423 91.6434H57.0357H49.9187V89.1562C49.9187 87.7978 48.8162 86.6953 47.4578 86.6953H34.7167C33.3582 86.6953 32.2557 87.7978 32.2557 89.1562V129.214C32.2557 130.572 33.3582 131.675 34.7167 131.675H47.4578C48.8162 131.675 49.9187 130.572 49.9187 129.214V125.919C55.884 126.851 61.2259 128.354 66.2856 130.402L65.7934 130.224C69.5964 131.589 73.9867 132.377 78.5607 132.377C83.8337 132.377 88.8606 131.33 93.4445 129.43L93.1853 129.525C97.2639 127.711 100.726 125.798 104.004 123.622L103.734 123.79C104.844 123.104 105.946 122.418 107.062 121.759C112.446 118.573 116.745 115.79 120.61 112.995C122.513 111.639 124.173 110.297 125.752 108.87L125.702 108.913C126.917 107.925 127.888 106.685 128.541 105.27L128.567 105.208C128.672 104.946 128.731 104.644 128.731 104.325C128.731 104.142 128.711 103.961 128.672 103.787L128.675 103.804C128.193 100.47 126.195 97.6809 123.415 96.1322L123.363 96.1059L123.366 96.1125ZM45.0001 126.759H37.1809V91.6237H45.0001V126.759ZM122.234 105.428C120.882 106.642 119.409 107.823 117.877 108.916L117.722 109.021C113.992 111.718 109.808 114.425 104.552 117.539C103.41 118.212 102.284 118.911 101.149 119.61C98.3434 121.493 95.1179 123.288 91.7448 124.814L91.3182 124.984C87.5382 126.536 83.1479 127.439 78.5509 127.439C74.6036 127.439 70.8137 126.776 67.2798 125.552L67.5226 125.624C62.4203 123.485 56.4845 121.851 50.2961 120.997L49.9187 120.955V96.5686H56.6814L72.3001 101.143C72.5036 101.205 72.7398 101.241 72.9859 101.241H72.9925H85.7565C88.6539 101.241 89.6842 102.954 89.6842 104.424C89.6842 105.894 88.6539 107.607 85.7565 107.607H63.4145C62.0561 107.607 60.9536 108.709 60.9536 110.068C60.9536 111.426 62.0561 112.529 63.4145 112.529H88.9459C89.3101 112.529 89.6546 112.45 89.9664 112.309L89.95 112.315L115.527 100.824C116.469 100.391 117.572 100.135 118.733 100.135C119.606 100.135 120.443 100.276 121.227 100.542L121.171 100.526C122.424 101.277 123.33 102.508 123.632 103.955L123.639 103.987C123.196 104.509 122.733 104.978 122.237 105.412L122.221 105.425L122.234 105.428Z" fill="black"/>
<defs>
<clipPath id="clip0_30_78">
<rect width="56" height="55" fill="white" transform="translate(52 33)"/>
</clipPath>
</defs>
</svg>