<svg width="103" height="103" viewBox="0 0 103 103" fill="none" xmlns="http://www.w3.org/2000/svg">
			
				<path d="M89.64 0H10.36C4.63833 0 0 4.63833 0 10.36V89.64C0 95.3617 4.63833 100 10.36 100H89.64C95.3617 100 100 95.3617 100 89.64V10.36C100 4.63833 95.3617 0 89.64 0Z" fill="white"/>
				<path d="M48.1111 89.6768C48.0124 89.4989 48.2704 86.92 48.6844 83.9474C49.7474 76.3117 49.7887 76.4598 47.3941 79.3284C42.6422 85.0208 34.2039 89.5373 28.2748 89.5622L26.7332 89.5679L27.4648 88.2162C28.6877 85.9562 32.9062 81.5664 35.6041 79.7462L38.1519 78.0272L33.3767 77.7638C26.1457 77.3652 19.8454 75.4006 13.6093 71.6059C11.8367 70.5275 10.2253 69.4733 10.0286 69.2626C9.62128 68.8283 13.6336 67.4083 17.5293 66.6096C21.2384 65.8487 29.608 65.9476 33.2313 66.7947C34.8868 67.1791 36.2883 67.4495 36.3458 67.3855C36.4058 67.3143 35.1651 66.2081 33.5942 64.9055C25.8456 58.4813 18.6621 47.3926 15.2917 36.652C14.2804 33.4295 14.012 32.0529 14.395 32.0529C15.0363 32.0529 21.7258 35.37 24.0955 36.8634C30.7031 41.0261 37.2157 47.3691 41.578 53.8894C42.851 55.7921 43.7873 56.9595 43.6588 56.484C42.7908 53.2708 42.4158 49.0419 42.4126 42.4305C42.4086 34.0787 42.928 30.21 45.0548 22.7558C46.2936 18.4137 49.7352 10 50.2726 10C50.6766 10 53.2942 16.2213 54.4885 20.0196C57.8263 30.6364 58.781 43.7431 56.9575 53.9179C56.6195 55.8049 56.3429 57.5325 56.3429 57.7574C56.3429 57.9852 57.3707 56.5623 58.6271 54.6012C64.3113 45.7305 72.9396 38.1133 82.1122 33.8687C86.9059 31.6507 86.7422 31.6329 86.088 34.3029C83.4538 45.0642 75.6278 57.6108 66.947 64.9895C65.3175 66.3747 64.0761 67.5079 64.1882 67.5079C64.3002 67.5079 65.5425 67.2303 66.9484 66.8886C72.9175 65.4387 79.7151 65.6323 86.1444 67.4367C90.7802 68.7365 90.8868 68.8945 88.3102 70.6492C81.8984 75.0162 75.0442 77.2819 66.7807 77.7652L62.4368 78.0215L64.8971 79.5754C67.2483 81.0603 72.7709 86.7356 73.7334 88.6561C74.1614 89.5103 74.0921 89.5679 72.6211 89.5679C70.0229 89.5679 65.0218 87.9777 61.4914 86.0302C58.9992 84.6542 57.2952 83.269 54.6953 80.5029L51.2255 76.8114L52.3493 82.649C52.9673 85.8601 53.4809 88.8269 53.4905 89.2433C53.5038 89.8911 53.1205 90 50.8995 90C49.4648 90 48.2097 89.8619 48.1111 89.6768Z" fill="black"/>
			</svg>