<svg width="103" height="103" viewBox="0 0 103 103" fill="none" xmlns="http://www.w3.org/2000/svg">
<path d="M91.14 1.5H11.86C6.13833 1.5 1.5 6.13833 1.5 11.86V91.14C1.5 96.8617 6.13833 101.5 11.86 101.5H91.14C96.8617 101.5 101.5 96.8617 101.5 91.14V11.86C101.5 6.13833 96.8617 1.5 91.14 1.5Z" fill="white" stroke="black" stroke-width="3" stroke-miterlimit="10"/>
<path d="M49.6111 91.1768C49.5124 90.9989 49.7704 88.42 50.1844 85.4474C51.2474 77.8117 51.2887 77.9598 48.8941 80.8284C44.1422 86.5208 35.7039 91.0373 29.7748 91.0622L28.2332 91.0679L28.9648 89.7162C30.1877 87.4562 34.4062 83.0664 37.1041 81.2462L39.6519 79.5272L34.8767 79.2638C27.6457 78.8652 21.3454 76.9006 15.1093 73.1059C13.3367 72.0275 11.7253 70.9733 11.5286 70.7626C11.1213 70.3283 15.1336 68.9083 19.0293 68.1096C22.7384 67.3487 31.108 67.4476 34.7313 68.2947C36.3868 68.6791 37.7883 68.9495 37.8458 68.8855C37.9058 68.8143 36.6651 67.7081 35.0942 66.4055C27.3456 59.9813 20.1621 48.8926 16.7917 38.152C15.7804 34.9295 15.512 33.5529 15.895 33.5529C16.5363 33.5529 23.2258 36.87 25.5955 38.3634C32.2031 42.5261 38.7157 48.8691 43.078 55.3894C44.351 57.2921 45.2873 58.4595 45.1588 57.984C44.2908 54.7708 43.9158 50.5419 43.9126 43.9305C43.9086 35.5787 44.428 31.71 46.5548 24.2558C47.7936 19.9137 51.2352 11.5 51.7726 11.5C52.1766 11.5 54.7942 17.7213 55.9885 21.5196C59.3263 32.1364 60.281 45.2431 58.4575 55.4179C58.1195 57.3049 57.8429 59.0325 57.8429 59.2574C57.8429 59.4852 58.8707 58.0623 60.1271 56.1012C65.8113 47.2305 74.4396 39.6133 83.6122 35.3687C88.4059 33.1507 88.2422 33.1329 87.588 35.8029C84.9538 46.5642 77.1278 59.1108 68.447 66.4895C66.8175 67.8747 65.5761 69.0079 65.6882 69.0079C65.8002 69.0079 67.0425 68.7303 68.4484 68.3886C74.4175 66.9387 81.2151 67.1323 87.6444 68.9367C92.2802 70.2365 92.3868 70.3945 89.8102 72.1492C83.3984 76.5162 76.5442 78.7819 68.2807 79.2652L63.9368 79.5215L66.3971 81.0754C68.7483 82.5603 74.2709 88.2356 75.2334 90.1561C75.6614 91.0103 75.5921 91.0679 74.1211 91.0679C71.5229 91.0679 66.5218 89.4777 62.9914 87.5302C60.4992 86.1542 58.7952 84.769 56.1953 82.0029L52.7255 78.3114L53.8493 84.149C54.4673 87.3601 54.9809 90.3269 54.9905 90.7433C55.0038 91.3911 54.6205 91.5 52.3995 91.5C50.9648 91.5 49.7097 91.3619 49.6111 91.1768Z" fill="black"/>
</svg>
