<svg xmlns="http://www.w3.org/2000/svg" viewBox="0 0 103 103"><defs><style>.cls-1,.cls-3,.cls-6{fill:none;}.cls-1,.cls-2,.cls-3,.cls-6{stroke:#1d1d1b;stroke-miterlimit:10;}.cls-1,.cls-2{stroke-width:3px;}.cls-2,.cls-5{fill:#1d1d1b;}.cls-4{fill:#fff;}.cls-6{stroke-width:0.5px;}</style></defs><g id="Слой_2" data-name="Слой 2"><rect class="cls-1" x="1.5" y="1.5" width="25" height="25" rx="10.22"/></g><g id="Слой_3" data-name="Слой 3"><path class="cls-2" d="M108.5,136.5l-45-2q-.49-23-1-46h46Z" transform="translate(-48 -48)"/><path class="cls-3" d="M138.5,63.5h-24l-52,25h46Z" transform="translate(-48 -48)"/><path class="cls-3" d="M138.5,84.5l-30,53v-49l30-25Z" transform="translate(-48 -48)"/><path class="cls-4" d="M63.28,85.11a16.61,16.61,0,0,0-3.46,2,1.14,1.14,0,0,0-.46.6,1.08,1.08,0,0,0,.1.77,1,1,0,0,0,.6.46,1,1,0,0,0,.77-.1,16.18,16.18,0,0,1,3.46-2,1,1,0,0,0,.46-.6,1,1,0,0,0-.1-.77,1,1,0,0,0-.59-.46,1.24,1.24,0,0,0-.78.1Z" transform="translate(-48 -48)"/><path class="cls-4" d="M63.6,85.11a12.24,12.24,0,0,0-3.35,1.82,4.84,4.84,0,0,0-1.71,3.16,1,1,0,0,0,1,1,1,1,0,0,0,1-1c0,.3,0-.06,0-.13a3,3,0,0,1,.1-.32l0-.1q0-.11,0,.09s.06-.13.07-.15a2.91,2.91,0,0,1,.17-.3L61,89s.12-.19,0-.06,0,0,.05-.06l.11-.13a4.79,4.79,0,0,1,.52-.49c.14-.12-.11.08,0,0l.16-.11.31-.21.66-.37.73-.34.17-.07c.18-.08-.11,0,0,0l.38-.16a1.15,1.15,0,0,0,.6-.46,1,1,0,0,0-1.13-1.47Z" transform="translate(-48 -48)"/><path class="cls-4" d="M60.16,86.72l-.43.85a.81.81,0,0,0-.12.37.78.78,0,0,0,0,.4.75.75,0,0,0,.18.34.78.78,0,0,0,.28.26l.24.1a1,1,0,0,0,.53,0l.24-.1a1,1,0,0,0,.36-.36l.43-.85a.81.81,0,0,0,.12-.37.78.78,0,0,0,0-.4.75.75,0,0,0-.18-.34.78.78,0,0,0-.28-.26l-.24-.1a1,1,0,0,0-.53,0l-.24.1a1,1,0,0,0-.36.36Z" transform="translate(-48 -48)"/><path class="cls-4" d="M60.91,91.11a10.06,10.06,0,0,1,1.79-3.82c.11-.14.09-.13.24-.31l.36-.41c.24-.26.5-.52.77-.76a9.42,9.42,0,0,1,1.68-1.22,1,1,0,0,0-1-1.72A12.36,12.36,0,0,0,59,90.58a1,1,0,0,0,.7,1.23,1,1,0,0,0,1.23-.7Z" transform="translate(-48 -48)"/><path class="cls-4" d="M63.61,85.14a19.65,19.65,0,0,0-4,2.12,1.15,1.15,0,0,0-.46.6,1,1,0,0,0,.11.77,1,1,0,0,0,1.36.36,20.53,20.53,0,0,1,1.79-1.11l.91-.46.49-.22.13-.06c-.14.06-.15.07,0,0l.25-.11a1.06,1.06,0,0,0,.6-.46,1,1,0,0,0,.1-.77,1,1,0,0,0-1.23-.69Z" transform="translate(-48 -48)"/><path class="cls-4" d="M63.56,85.18l-1.06.43a.75.75,0,0,0-.34.18.7.7,0,0,0-.26.28.81.81,0,0,0-.12.37.78.78,0,0,0,0,.4,1,1,0,0,0,.46.59l.24.11a1.19,1.19,0,0,0,.53,0l1.06-.43a1.15,1.15,0,0,0,.6-.46.85.85,0,0,0,.12-.37.78.78,0,0,0,0-.4,1,1,0,0,0-.46-.6l-.24-.1a1,1,0,0,0-.53,0Z" transform="translate(-48 -48)"/><path class="cls-4" d="M63.57,85.25a4.91,4.91,0,0,0-1,.33l-1,.41a.75.75,0,0,0-.34.18.78.78,0,0,0-.26.28,1,1,0,0,0,.36,1.37,1,1,0,0,0,.77.1l1-.41a4.91,4.91,0,0,1,1-.33,1.1,1.1,0,0,0,.6-.46,1.09,1.09,0,0,0,.1-.77,1,1,0,0,0-.46-.6l-.24-.1a1,1,0,0,0-.53,0Z" transform="translate(-48 -48)"/><path class="cls-4" d="M61.69,86l-.09.08.21-.16a2.51,2.51,0,0,1-.45.26l.23-.1-.22.08a1.08,1.08,0,0,0-.59.46.63.63,0,0,0-.12.37.69.69,0,0,0,0,.4l.1.24a.87.87,0,0,0,.36.35l.23.11a1.23,1.23,0,0,0,.54,0l.2-.08.44-.19a2,2,0,0,0,.19-.12l.37-.28a.75.75,0,0,0,.2-.33.63.63,0,0,0,.09-.38.66.66,0,0,0-.09-.39.72.72,0,0,0-.2-.32l-.2-.16a1,1,0,0,0-.51-.13l-.27,0a1.17,1.17,0,0,0-.44.26Z" transform="translate(-48 -48)"/><path class="cls-4" d="M60.91,91.43a9,9,0,0,1,.57-1.9l-.1.24,0-.07a.81.81,0,0,0,.12-.37.78.78,0,0,0,0-.4,1.1,1.1,0,0,0-.46-.6,1,1,0,0,0-.77-.1,1,1,0,0,0-.6.46A10.14,10.14,0,0,0,59,90.9a1.08,1.08,0,0,0,.1.77,1,1,0,0,0,1.37.36,1,1,0,0,0,.46-.6Z" transform="translate(-48 -48)"/><path class="cls-4" d="M62.92,85.4A6.12,6.12,0,0,0,59.66,88,1,1,0,0,0,60,89.38,1,1,0,0,0,61.39,89a4.07,4.07,0,0,1,.33-.48l-.16.2a5.22,5.22,0,0,1,.91-.91l-.2.16a5.13,5.13,0,0,1,1.11-.65l-.24.1.31-.12a1.1,1.1,0,0,0,.6-.46,1.08,1.08,0,0,0,.1-.77,1,1,0,0,0-1.23-.7Z" transform="translate(-48 -48)"/><path class="cls-4" d="M63.27,85.36a7.63,7.63,0,0,0-3.14,1.9,1,1,0,0,0,1.41,1.41,6.75,6.75,0,0,1,.64-.56l-.2.15a6.74,6.74,0,0,1,1.47-.86l-.24.1a5.89,5.89,0,0,1,.59-.21,1.08,1.08,0,0,0,.59-.46,1,1,0,0,0,.11-.77,1,1,0,0,0-1.23-.7Z" transform="translate(-48 -48)"/><path class="cls-4" d="M61.68,86.14a2.63,2.63,0,0,0-1.74,1.75.77.77,0,0,0,0,.4.85.85,0,0,0,.12.37.77.77,0,0,0,.26.28.75.75,0,0,0,.34.18l.27,0a1,1,0,0,0,.5-.13l.2-.16a1,1,0,0,0,.26-.44s0-.1.05-.15l-.1.24a1.9,1.9,0,0,1,.2-.34l-.15.2a1.33,1.33,0,0,1,.29-.29l-.2.15a2.12,2.12,0,0,1,.36-.21l-.24.1.13-.05a.75.75,0,0,0,.34-.18.68.68,0,0,0,.25-.28.61.61,0,0,0,.12-.37.78.78,0,0,0,0-.4l-.11-.24a.84.84,0,0,0-.35-.35,1,1,0,0,0-.77-.11Z" transform="translate(-48 -48)"/><path class="cls-4" d="M61.18,86.44a1.71,1.71,0,0,0-.23.13l-.29.22-.1.09a3,3,0,0,0-.32.39,1.64,1.64,0,0,0-.14.22.63.63,0,0,0-.12.37.78.78,0,0,0,0,.4.75.75,0,0,0,.18.34.68.68,0,0,0,.28.25l.24.11a1.19,1.19,0,0,0,.53,0l.24-.11a.84.84,0,0,0,.35-.35,1.7,1.7,0,0,1,.15-.22l-.16.2a1.33,1.33,0,0,1,.29-.29l-.2.15a1.69,1.69,0,0,1,.29-.17.78.78,0,0,0,.28-.26.75.75,0,0,0,.18-.34.78.78,0,0,0,0-.4.81.81,0,0,0-.12-.37l-.16-.2a.94.94,0,0,0-.44-.26l-.27,0a1,1,0,0,0-.5.14Z" transform="translate(-48 -48)"/><path class="cls-5" d="M66.76,86.65a1.13,1.13,0,0,0,.55.94.26.26,0,0,0,.35-.09.26.26,0,0,0-.09-.34l-.09-.06,0,0a1.21,1.21,0,0,1-.16-.16l0,.06a1.13,1.13,0,0,1-.12-.21l0,.06a.79.79,0,0,1-.06-.22v.07a.28.28,0,0,1,0-.09A.25.25,0,0,0,67,86.4a.26.26,0,0,0-.25.25Z" transform="translate(-48 -48)"/><path class="cls-5" d="M64.76,87l-.38.14a.22.22,0,0,0-.15.11.22.22,0,0,0,0,.19.23.23,0,0,0,.12.15.25.25,0,0,0,.19,0l.38-.13a.3.3,0,0,0,.15-.12.25.25,0,0,0,0-.19A.24.24,0,0,0,65,87a.26.26,0,0,0-.19,0Z" transform="translate(-48 -48)"/><path class="cls-5" d="M62.06,90.86c0-.07,0-.15,0-.22s0-.08,0-.13,0-.07,0,0c0-.15,0-.3.07-.44l.09-.4.06-.19a.36.36,0,0,1,0-.09s0-.11,0,0a3.47,3.47,0,0,1,.18-.33s0,.06,0,0l.06-.06.07-.07,0,0s0,0,.05,0l.07,0,.09,0c.06,0-.07,0,0,0s.15-.06.18,0-.1,0,0,0h.12a.49.49,0,0,0,.5-.5.51.51,0,0,0-.5-.5,1.85,1.85,0,0,0-1.66,1.07,5.79,5.79,0,0,0-.48,2.09.5.5,0,1,0,1,0Z" transform="translate(-48 -48)"/><path class="cls-5" d="M63,88.71l.54-.24a.58.58,0,0,0,.14-.13.56.56,0,0,0,.09-.17.46.46,0,0,0,0-.2.33.33,0,0,0-.06-.19.5.5,0,0,0-.3-.23l-.13,0a.59.59,0,0,0-.26.07l-.53.25a.37.37,0,0,0-.15.13.34.34,0,0,0-.08.17.27.27,0,0,0,0,.2.32.32,0,0,0,.06.18.48.48,0,0,0,.29.23l.14,0a.45.45,0,0,0,.25-.07Z" transform="translate(-48 -48)"/><path class="cls-5" d="M64.72,86.89l-1,.4c-.33.13-.66.24-1,.4a1.84,1.84,0,0,0-1.14,1.62.5.5,0,0,0,.5.5.51.51,0,0,0,.5-.5v-.09c0-.09,0,0,0,0s0-.06,0-.08,0-.1,0,0l0,0s0,0,0-.08,0,0,0,0l.06-.07.14-.13c.06,0,0,0,0,0l.08,0a2.75,2.75,0,0,1,.38-.2c.07,0-.07,0,0,0l.09,0,.2-.08.44-.16.91-.35a.5.5,0,0,0-.26-1Z" transform="translate(-48 -48)"/><path class="cls-4" d="M109.9,88.36c0,.52,0,1,0,1.55a2.79,2.79,0,0,0,.39,1.47.5.5,0,1,0,.87-.51l-.1-.15s0-.14,0,0a1.49,1.49,0,0,1-.09-.3l0-.18c0,.09,0,0,0,0s0-.21,0-.32c0-.48,0-1,0-1.46a.5.5,0,1,0-1,0Z" transform="translate(-48 -48)"/><path class="cls-5" d="M109.81,87.08a23.61,23.61,0,0,0-1.3,5,.53.53,0,0,0,.35.62.51.51,0,0,0,.62-.35,23.44,23.44,0,0,1,1.29-5,.49.49,0,0,0-.35-.61.5.5,0,0,0-.61.34Z" transform="translate(-48 -48)"/><path class="cls-5" d="M109.86,86.8a13.08,13.08,0,0,1-3.07.21.5.5,0,0,0,0,1,14.38,14.38,0,0,0,3.34-.24.5.5,0,0,0-.27-1Z" transform="translate(-48 -48)"/><path class="cls-5" d="M109.17,88.06a6.93,6.93,0,0,0-.15,3.17.52.52,0,0,0,.62.35A.52.52,0,0,0,110,91a3.88,3.88,0,0,1-.08-.62,4.09,4.09,0,0,1,0-.7c0-.11,0-.22,0-.33a.37.37,0,0,0,0-.11h0l0-.18c0-.24.1-.46.17-.69a.5.5,0,0,0-.35-.61.51.51,0,0,0-.62.34Z" transform="translate(-48 -48)"/><path class="cls-5" d="M109.21,89.38l-.14,2.26a.5.5,0,0,0,.5.5.51.51,0,0,0,.5-.5l.14-2.26a.5.5,0,0,0-.5-.5.52.52,0,0,0-.5.5Z" transform="translate(-48 -48)"/><path class="cls-5" d="M110.12,86.31a32,32,0,0,1-6.82.86c-.64,0-.65,1,0,1a33.17,33.17,0,0,0,7.09-.9c.62-.15.36-1.11-.27-1Z" transform="translate(-48 -48)"/><path class="cls-4" d="M109.9,136.18a3.23,3.23,0,0,1-.25.49l-.15.22s-.11.15,0,0,0,0,0,0a3.59,3.59,0,0,1-.39.39l-.09.08c-.13.11.14-.1,0,0a1.7,1.7,0,0,1-.22.15l-.22.13-.16.08s-.17.08,0,0l-.07,0-.13,0-.29.08-.3.05c.1,0,.19,0,0,0h-.13a4.52,4.52,0,0,1-.64,0,1,1,0,0,0-.71.29,1.05,1.05,0,0,0-.29.71,1,1,0,0,0,.29.71,1.16,1.16,0,0,0,.71.29,4.76,4.76,0,0,0,4.79-2.75,1.08,1.08,0,0,0,.1-.77,1,1,0,0,0-1.83-.24Z" transform="translate(-48 -48)"/><path class="cls-4" d="M59.89,135.19a5.09,5.09,0,0,0,2,2.72,12,12,0,0,0,3.19,1.45,1,1,0,0,0,1.23-.7,1,1,0,0,0-.7-1.23c-.48-.16-1-.32-1.44-.53h0l-.14-.06-.36-.18a6.74,6.74,0,0,1-.64-.38l-.11-.08c-.19-.14.11.09,0,0l-.24-.2c-.16-.15-.3-.31-.45-.48s.11.17,0,0a.71.71,0,0,1-.1-.14,2.26,2.26,0,0,1-.16-.26l-.08-.16,0-.06,0,.08a2.13,2.13,0,0,0-.11-.33,1,1,0,0,0-1.93.54Z" transform="translate(-48 -48)"/><path class="cls-4" d="M60,134.75a4.06,4.06,0,0,0,1.06,2.44,3.9,3.9,0,0,0,2.13,1.2,1,1,0,0,0,.77-.1,1,1,0,0,0,.46-.59,1,1,0,0,0-.1-.77,1,1,0,0,0-.6-.46,2.54,2.54,0,0,1-.61-.19l.23.11a3.11,3.11,0,0,1-.65-.39l.21.16a3.35,3.35,0,0,1-.57-.56l.16.2a3.62,3.62,0,0,1-.41-.68l.11.24a3.19,3.19,0,0,1-.21-.73l0,.27c0-.05,0-.1,0-.15a1.05,1.05,0,0,0-.29-.71,1,1,0,0,0-.71-.29,1,1,0,0,0-.7.29,1,1,0,0,0-.3.71Z" transform="translate(-48 -48)"/><path class="cls-4" d="M60.24,135.81A5.24,5.24,0,0,0,63.43,138a1,1,0,1,0,.53-1.93,3.86,3.86,0,0,1-.73-.23l.24.1a4.34,4.34,0,0,1-.93-.54l.2.15a4.26,4.26,0,0,1-.77-.76l.16.2a1.88,1.88,0,0,1-.16-.23,1.06,1.06,0,0,0-.6-.46,1.08,1.08,0,0,0-.77.1,1.06,1.06,0,0,0-.46.6,1,1,0,0,0,.1.77Z" transform="translate(-48 -48)"/><path class="cls-4" d="M114.41,61.51l-.58.09a.55.55,0,0,0-.25.13.66.66,0,0,0-.2.21.71.71,0,0,0-.09.28.61.61,0,0,0,0,.3l.07.18a.87.87,0,0,0,.27.27l.18.08a.9.9,0,0,0,.4,0l.57-.09a.58.58,0,0,0,.26-.13.63.63,0,0,0,.19-.21.49.49,0,0,0,.09-.28.61.61,0,0,0,0-.3l-.08-.18a.7.7,0,0,0-.27-.27l-.18-.08a.86.86,0,0,0-.39,0Z" transform="translate(-48 -48)"/><path class="cls-4" d="M138.14,63a3.2,3.2,0,0,1,.44,0l-.2,0a.65.65,0,0,1,.2.05L138.4,63a.82.82,0,0,1,.2.12l-.15-.12a2.16,2.16,0,0,1,.4.4l-.12-.15a2.39,2.39,0,0,1,.34.58L139,63.6a2.58,2.58,0,0,1,.17.62.76.76,0,0,0,.34.45.77.77,0,0,0,1-.27l.08-.18a.9.9,0,0,0,0-.4,3.25,3.25,0,0,0-.73-1.57,2.52,2.52,0,0,0-.65-.57,1.94,1.94,0,0,0-1.09-.18.81.81,0,0,0-.53.22.77.77,0,0,0-.22.53.73.73,0,0,0,.22.53.71.71,0,0,0,.53.22Z" transform="translate(-48 -48)"/><path class="cls-4" d="M138.86,63.27l0,0-.07-.18a1.68,1.68,0,0,1,.09.32l.09.33a.58.58,0,0,0,.13.26.63.63,0,0,0,.21.19.49.49,0,0,0,.28.09.61.61,0,0,0,.3,0l.18-.08a.7.7,0,0,0,.27-.27l.08-.18a.86.86,0,0,0,0-.39l-.1-.37a2.47,2.47,0,0,0-.18-.52.76.76,0,0,0-.19-.21.64.64,0,0,0-.26-.13.51.51,0,0,0-.3,0,.49.49,0,0,0-.28.09l-.15.11a.79.79,0,0,0-.19.33l0,.2a.83.83,0,0,0,.1.38Z" transform="translate(-48 -48)"/><path class="cls-4" d="M109.76,94.27l-.6.77a.26.26,0,0,0-.07.17.29.29,0,0,0,.07.18.27.27,0,0,0,.36,0l.59-.77a.23.23,0,0,0,.08-.17.25.25,0,0,0-.08-.18.22.22,0,0,0-.17-.07.23.23,0,0,0-.18.07Z" transform="translate(-48 -48)"/><path class="cls-4" d="M109.33,95.47l.91,0a.25.25,0,0,0,.25-.25.24.24,0,0,0-.25-.25l-.91,0a.25.25,0,0,0-.25.25.26.26,0,0,0,.25.25Z" transform="translate(-48 -48)"/><path class="cls-4" d="M110.1,95.24l.14,0a.14.14,0,0,0,.08,0,.16.16,0,0,0,.07-.07l0-.09a.34.34,0,0,0,0-.1l0-.06-.09-.09-.06,0a.17.17,0,0,0-.14,0l-.13,0a.19.19,0,0,0-.09,0,.13.13,0,0,0-.06.07.35.35,0,0,0,0,.2l0,.06.09.09.06,0a.28.28,0,0,0,.13,0Z" transform="translate(-48 -48)"/><path class="cls-4" d="M110.06,93.65a1.22,1.22,0,0,1-.06.26l0,.11s0,.09,0,.13,0,0,0,0l0,.06-.06.11c0,.08-.09.15-.14.23a.24.24,0,0,0,.09.34.26.26,0,0,0,.34-.09,2.5,2.5,0,0,0,.43-1,.21.21,0,0,0,0-.19.22.22,0,0,0-.15-.12.26.26,0,0,0-.31.18Z" transform="translate(-48 -48)"/><path class="cls-4" d="M110,93.72l-.34.64a.28.28,0,0,0,0,.2.24.24,0,0,0,.12.14.24.24,0,0,0,.34-.09l.34-.64a.31.31,0,0,0,0-.19.26.26,0,0,0-.12-.15.26.26,0,0,0-.34.09Z" transform="translate(-48 -48)"/><path class="cls-4" d="M110.78,87.27a6.39,6.39,0,0,0-.92,3,24,24,0,0,0,0,3.6c0,.32.52.32.5,0a25.25,25.25,0,0,1,0-3.37,6.07,6.07,0,0,1,.86-3c.17-.27-.26-.52-.43-.25Z" transform="translate(-48 -48)"/><path class="cls-4" d="M109.18,95l-.05.07,0,0a1.14,1.14,0,0,1-.15.16l0,0-.11.07a.13.13,0,0,0,.12.22,1,1,0,0,0,.36-.34.12.12,0,0,0,0-.17.12.12,0,0,0-.17,0Z" transform="translate(-48 -48)"/><path class="cls-4" d="M109,95.51l1.3-.08c.16,0,.16-.26,0-.25l-1.3.08c-.16,0-.16.26,0,.25Z" transform="translate(-48 -48)"/><path class="cls-4" d="M109.05,95.43a2.44,2.44,0,0,0,.42-.43c.06-.07.11-.14.17-.2l0,0,0,0s0,0,0,0l0,0,0,0s0,0,0,0a.13.13,0,0,0,.09-.15.12.12,0,0,0-.15-.08,1.08,1.08,0,0,0-.45.37,3.12,3.12,0,0,1-.43.46.11.11,0,0,0,0,.17.12.12,0,0,0,.17,0Z" transform="translate(-48 -48)"/><path class="cls-4" d="M109.83,98.37a.29.29,0,0,1-.12.3l.21.12.44-1.09a.13.13,0,0,0-.09-.15.12.12,0,0,0-.15.09l-.44,1.09a.13.13,0,0,0,0,.14.15.15,0,0,0,.16,0,.55.55,0,0,0,.18-.54.12.12,0,0,0-.15-.09.13.13,0,0,0-.09.15Z" transform="translate(-48 -48)"/><path class="cls-4" d="M61.83,126.22l.43.37a.14.14,0,0,0,.16,0,.13.13,0,0,0,0-.16l-.57-.76a.12.12,0,0,0-.17,0,.13.13,0,0,0,0,.17l.56.75.2-.15L62,126a.12.12,0,0,0-.17,0,.12.12,0,0,0,0,.18Z" transform="translate(-48 -48)"/><path class="cls-4" d="M61.72,124.65l.38.25a.13.13,0,0,0,.17,0,.12.12,0,0,0,0-.17l-.39-.26a.13.13,0,0,0-.12.22Z" transform="translate(-48 -48)"/><path class="cls-4" d="M61.67,123.2a.87.87,0,0,0,.54.36c.08,0,.19-.06.15-.16l-.52-1.27a.13.13,0,0,0-.15-.09.14.14,0,0,0-.09.16l.52,1.27.16-.15a.57.57,0,0,1-.39-.25c-.09-.13-.31,0-.22.13Z" transform="translate(-48 -48)"/><path class="cls-4" d="M61.58,122.78l.21.34a.13.13,0,0,0,.16,0A.13.13,0,0,0,62,123l-.1-.5a.11.11,0,0,0-.12-.09.12.12,0,0,0-.12.09,1,1,0,0,0,.4,1,.13.13,0,0,0,.17,0,.14.14,0,0,0,0-.17h0l0,0,0,0,0,0,0,0s0,0,0,0l0-.08,0,0v0s0,0,0,0l0-.1s0,0,0-.06v0s0,0,0,0v-.19h-.24l.1.5L62,123l-.21-.35a.12.12,0,0,0-.21.13Z" transform="translate(-48 -48)"/><path class="cls-4" d="M78,87l1.31,2.14c.06.1.24.07.23-.06l-.19-2.1c0-.16-.26-.16-.25,0l.19,2.1.23-.06-1.31-2.15A.12.12,0,0,0,78,87Z" transform="translate(-48 -48)"/><path class="cls-4" d="M78.34,87l.7,1a.12.12,0,0,0,.17,0,.13.13,0,0,0,.05-.17l-.71-1a.12.12,0,0,0-.17,0,.13.13,0,0,0,0,.17Z" transform="translate(-48 -48)"/><path class="cls-4" d="M78.21,86.92A5.37,5.37,0,0,0,79,88.49a.13.13,0,0,0,.16.05.12.12,0,0,0,.07-.14c-.07-.24-.15-.48-.22-.73a.77.77,0,0,1,0-.63l-.22,0,.1.62c0,.14.26.11.25,0s0-.38-.08-.57-.17-.31-.35-.22a.38.38,0,0,0-.17.43.18.18,0,0,0,.18.15.16.16,0,0,0,.16-.16c0-.14-.22-.18-.25,0a1.13,1.13,0,0,0,.15.78c.09.13.3,0,.22-.13a.85.85,0,0,1-.13-.58l-.24,0h0l0-.06h0l0,0h.07l0,0s0-.11,0-.15,0,0,0,0,0,0,0,0a.19.19,0,0,1,0,.07c0,.17,0,.34.07.5l.24,0-.1-.62c0-.11-.18-.11-.23,0a1,1,0,0,0-.07.74c.08.27.17.54.25.8l.23-.09a5.25,5.25,0,0,1-.81-1.51c0-.15-.29-.09-.24.06Z" transform="translate(-48 -48)"/><path class="cls-4" d="M110.25,86.06a5,5,0,0,1-2,.21c-.16,0-.16.23,0,.25a5.32,5.32,0,0,0,2.06-.22.12.12,0,0,0-.06-.24Z" transform="translate(-48 -48)"/><line class="cls-6" x1="67.5" y1="17.5" x2="46.5" y2="28.5"/><line class="cls-6" x1="69.5" y1="17.5" x2="54.5" y2="26.5"/><path class="cls-5" d="M125.54,73.66l-.83.15a.12.12,0,0,0,0,.24l.52.2a.11.11,0,0,0,.15-.08.13.13,0,0,0-.09-.16l-.52-.2v.24l.83-.15a.12.12,0,0,0,.09-.15.13.13,0,0,0-.15-.09Z" transform="translate(-48 -48)"/><path class="cls-5" d="M126.68,74l.09.17a.12.12,0,0,0,.22,0l.18-.63a.12.12,0,0,0-.09-.15.12.12,0,0,0-.15.08l-.18.63.23,0-.09-.17a.13.13,0,0,0-.17,0,.14.14,0,0,0,0,.17Z" transform="translate(-48 -48)"/><path class="cls-5" d="M86.68,77.07l.14,1a.12.12,0,0,0,.24,0l.13-1a.11.11,0,0,0-.09-.12.13.13,0,0,0-.14,0l-.15.3a.13.13,0,0,0,0,.17.13.13,0,0,0,.17,0l.16-.29L87,77l-.14,1,.25,0-.14-1a.13.13,0,0,0-.15-.09.13.13,0,0,0-.09.15Z" transform="translate(-48 -48)"/><line class="cls-6" x1="89" y1="36" x2="75" y2="58"/><line class="cls-6" x1="88.5" y1="35.5" x2="75.5" y2="55.5"/></g></svg>
