<svg width="25" height="25" viewBox="0 0 100 100" fill="none" xmlns="http://www.w3.org/2000/svg">
  <title>Driver has own operating authority</title>
  <rect width="25" height="25" rx="14.6" fill="#B92727"/>
  <path d="M51.1143 68H43.5947V42.1211L34.4395 61.8477H28.6289L19.498 42.1943V68H11.9785V31.3789H21.5244L31.5342 53.498L41.5439 31.3789H51.1143V68ZM88.834 63.4102C87.125 65.0703 85.0986 66.3724 82.7549 67.3164C80.4111 68.2604 77.8639 68.7324 75.1133 68.7324C72.3301 68.7324 69.7666 68.2604 67.4229 67.3164C65.0791 66.3561 63.0365 65.0215 61.2949 63.3125C59.5697 61.5872 58.2269 59.569 57.2666 57.2578C56.3063 54.9466 55.8262 52.4238 55.8262 49.6895C55.8262 46.9551 56.3063 44.4323 57.2666 42.1211C58.2269 39.7936 59.5697 37.7754 61.2949 36.0664C63.0365 34.3574 65.0791 33.0309 67.4229 32.0869C69.7666 31.1266 72.3301 30.6465 75.1133 30.6465C77.8477 30.6465 80.3786 31.1185 82.7061 32.0625C85.0498 33.0065 87.0762 34.3167 88.7852 35.9932L83.5361 41.2666C82.5107 40.0133 81.2575 39.0286 79.7764 38.3125C78.3115 37.5801 76.7165 37.2139 74.9912 37.2139C73.3473 37.2139 71.8255 37.5312 70.4258 38.166C69.0423 38.7845 67.8298 39.6634 66.7881 40.8027C65.7464 41.9258 64.9408 43.2441 64.3711 44.7578C63.8014 46.2715 63.5166 47.9072 63.5166 49.665C63.5166 51.4554 63.8014 53.1074 64.3711 54.6211C64.9408 56.1348 65.7464 57.4613 66.7881 58.6006C67.8298 59.7236 69.0423 60.6025 70.4258 61.2373C71.8255 61.8558 73.3473 62.165 74.9912 62.165C76.7165 62.165 78.3115 61.807 79.7764 61.0908C81.2412 60.3584 82.4863 59.3656 83.5117 58.1123L88.834 63.4102Z" fill="white"/>
</svg>
