<svg xmlns="http://www.w3.org/2000/svg" viewBox="0 0 512 512" aria-hidden="true">
	<path fill="#333333" d="M371.093,0H149.227c-18.773,0-34.133,15.36-34.133,34.133v443.733c0,18.773,15.36,34.133,34.133,34.133h221.867c18.773,0,34.133-15.36,34.133-34.133V34.133C405.227,15.36,389.867,0,371.093,0z M388.16,477.867c0,9.387-7.68,17.067-17.067,17.067H149.227c-9.387,0-17.067-7.68-17.067-17.067V34.133c0-9.387,7.68-17.067,17.067-17.067h221.867c9.387,0,17.067,7.68,17.067,17.067V477.867z"/>
	<path fill="#333333" d="M115.093,51.2v392.533h290.133V51.2H115.093z M388.16,426.667h-256v-358.4h256V426.667z"/>
	<path fill="#333333" d="M294.293,25.6h-42.667c-5.12,0-8.533,3.413-8.533,8.533c0,5.12,3.413,8.533,8.533,8.533h42.667c5.12,0,8.533-3.413,8.533-8.533C302.827,29.013,299.413,25.6,294.293,25.6z"/>
	<path fill="#333333" d="M226.027,25.6h-8.533c-5.12,0-8.533,3.413-8.533,8.533c0,5.12,3.413,8.533,8.533,8.533h8.533c5.12,0,8.533-3.413,8.533-8.533C234.56,29.013,231.147,25.6,226.027,25.6z"/>
	<path fill="#333333" d="M260.16,435.2c-18.773,0-34.133,15.36-34.133,34.133c0,18.773,15.36,34.133,34.133,34.133s34.133-15.36,34.133-34.133C294.293,450.56,278.933,435.2,260.16,435.2z M260.16,486.4c-9.387,0-17.067-7.68-17.067-17.067s7.68-17.067,17.067-17.067s17.067,7.68,17.067,17.067S269.547,486.4,260.16,486.4z"/>
	<path fill="#333333" d="M257.6,128c-44.373,0.853-81.92,38.4-82.773,82.773c-0.853,18.773,5.12,36.693,15.36,51.2c18.773,26.453,29.867,43.52,39.253,63.147l23.04,45.227c3.413,5.973,11.947,5.973,15.36,0l23.893-48.64c9.387-17.92,19.627-34.987,37.547-58.88c10.24-14.507,16.213-31.573,16.213-49.493C345.493,165.547,306.24,126.293,257.6,128z M314.773,253.44c-17.92,24.747-29.013,42.667-39.253,61.44l-15.36,33.28l-15.36-30.72c-10.24-19.627-21.333-37.547-40.96-64.853c-8.533-11.947-12.8-26.453-12.8-40.96c0.853-35.84,30.72-65.707,66.56-66.56c38.4-0.853,69.973,29.867,69.973,68.267C327.573,227.84,323.307,241.493,314.773,253.44z"/>
	<path fill="#333333" d="M260.16,179.2c-18.773,0-34.133,15.36-34.133,34.133c0,18.773,15.36,34.133,34.133,34.133s34.133-15.36,34.133-34.133C294.293,194.56,278.933,179.2,260.16,179.2z M260.16,230.4c-9.387,0-17.067-7.68-17.067-17.067c0-9.387,7.68-17.067,17.067-17.067s17.067,7.68,17.067,17.067C277.227,222.72,269.547,230.4,260.16,230.4z"/>
</svg>
