<svg xmlns="http://www.w3.org/2000/svg" viewBox="0 0 103 103"><defs><style>.cls-1,.cls-2{fill:none;stroke:#1d1d1b;stroke-miterlimit:10;}.cls-1{stroke-width:3px;}.cls-2{stroke-width:2px;}.cls-3{fill:#fff;}.cls-4{fill:#1d1d1b;}</style></defs><g id="Слой_1" data-name="Слой 1"><rect class="cls-1" x="1.5" y="1.5" width="25" height="25" rx="10.28"/></g><g id="Слой_3" data-name="Слой 3"><path class="cls-2" d="M78.5,76.5a12.41,12.41,0,0,1,4.84-3.21A10.18,10.18,0,0,1,92.5,74.5c8,5,14,26.88,14,43" transform="translate(-48 -48)"/><path class="cls-2" d="M84.5,71.5c9-5,16-4,16-4a20.11,20.11,0,0,1,11,7c5,6,6,5,10,16s3,23,3,23" transform="translate(-48 -48)"/><path class="cls-2" d="M112.79,76c3.71.5,9.71,7.5,9.71,7.5l3,6a15.39,15.39,0,0,1,2,8,24.13,24.13,0,0,1,3,8s5.77,5,7.88,11a7.45,7.45,0,0,1-2.88,9s-17.43,5.7-22.71,5.35c0,0-7.29,1.65-12.29-.35l-15-6-22-9s-5-3-3-7,3-3,3-3,0-21,15-29,22,24.15,21.5,28.07-1.5,2.93-2.5,1.93,1,10,1,10" transform="translate(-48 -48)"/><path class="cls-2" d="M63.5,109.5s12,7.62,21,10.31,26,1.69,26,1.69,10-1,15-3,5-8,5-8" transform="translate(-48 -48)"/><path class="cls-3" d="M65.94,106.39l-1.62.19a.71.71,0,0,0-.38.09.76.76,0,0,0-.32.2,1,1,0,0,0-.3.71,1,1,0,0,0,.3.71,1,1,0,0,0,.7.29l1.62-.19a.73.73,0,0,0,.38-.08.78.78,0,0,0,.32-.21,1,1,0,0,0,0-1.42,1,1,0,0,0-.7-.29Z" transform="translate(-48 -48)"/><path class="cls-3" d="M64.94,105a1.48,1.48,0,0,1,0,.21l0-.27a1.36,1.36,0,0,1-.1.36l.1-.24a2,2,0,0,1-.28.47l.16-.2a5.57,5.57,0,0,1-.87.81,4.57,4.57,0,0,0-.94,1,1,1,0,0,0,.36,1.37,1,1,0,0,0,1.36-.36,1.09,1.09,0,0,1,.13-.17l-.16.2A12.45,12.45,0,0,1,66,107.08a2.85,2.85,0,0,0,1-2,1,1,0,0,0-2,0Z" transform="translate(-48 -48)"/><path class="cls-3" d="M65.41,106.77l-1.53.27a.75.75,0,0,0-.34.18.7.7,0,0,0-.26.28,1,1,0,0,0-.1.77,1,1,0,0,0,.46.59l.24.11a1.19,1.19,0,0,0,.53,0l1.53-.27a1.15,1.15,0,0,0,.6-.46,1,1,0,0,0,.1-.77,1.06,1.06,0,0,0-.46-.6l-.24-.1a1.19,1.19,0,0,0-.53,0Z" transform="translate(-48 -48)"/><path class="cls-3" d="M61.74,110.71l1.1,1.79a1,1,0,0,0,.59.46,1.08,1.08,0,0,0,.77-.1,1,1,0,0,0,.36-1.37l-1.1-1.79a1,1,0,0,0-.59-.46,1,1,0,0,0-.77.1,1,1,0,0,0-.46.6,1,1,0,0,0,.1.77Z" transform="translate(-48 -48)"/><path class="cls-3" d="M63.77,110.34a1,1,0,0,0,0-2,1,1,0,0,0,0,2Z" transform="translate(-48 -48)"/><path class="cls-3" d="M65.34,108.72a1,1,0,0,0,0-2,1,1,0,0,0,0,2Z" transform="translate(-48 -48)"/><path class="cls-3" d="M112.87,127.74l0,0,.1-.24-.06.12.16-.21a.8.8,0,0,1-.13.13l.2-.16a.72.72,0,0,1-.19.11l.24-.1a1.22,1.22,0,0,1-.26.06l.27,0a9.29,9.29,0,0,1-1.18,0l-1.19,0a1,1,0,0,0-1,1,1,1,0,0,0,1,1c.62,0,1.25.05,1.88.05a2.8,2.8,0,0,0,1.25-.21,1.69,1.69,0,0,0,.86-1,1,1,0,0,0-.7-1.23,1,1,0,0,0-1.23.7Z" transform="translate(-48 -48)"/><path class="cls-4" d="M98.53,117.45a1,1,0,0,0,0-2,1,1,0,0,0,0,2Z" transform="translate(-48 -48)"/><path class="cls-4" d="M98.51,117.49a1,1,0,0,0,0-2,1,1,0,0,0,0,2Z" transform="translate(-48 -48)"/><path class="cls-4" d="M106.49,118.55a1,1,0,0,0,0-2,1,1,0,0,0,0,2Z" transform="translate(-48 -48)"/><path class="cls-4" d="M106.49,118.43a1,1,0,0,0,0-2,1,1,0,0,0,0,2Z" transform="translate(-48 -48)"/><path class="cls-4" d="M97.37,107.68a1.94,1.94,0,0,0,.57.2,3,3,0,0,0,.42,0,2,2,0,0,0,.43,0,1.82,1.82,0,0,0,.55-.2.51.51,0,0,0,.16-.09,2.69,2.69,0,0,0,.33-.26,1,1,0,0,0,.29-.71.71.71,0,0,0-.08-.38.72.72,0,0,0-.21-.33,1,1,0,0,0-.71-.29,1.07,1.07,0,0,0-.71.29.76.76,0,0,1-.09.09l.2-.16a.72.72,0,0,1-.24.14l.24-.1a1.29,1.29,0,0,1-.28.08l.27,0a.81.81,0,0,1-.31,0l.27,0a.9.9,0,0,1-.28-.08l.24.1-.05,0a.77.77,0,0,0-.37-.12.78.78,0,0,0-.4,0,.75.75,0,0,0-.34.18.68.68,0,0,0-.25.28,1,1,0,0,0,.35,1.37Z" transform="translate(-48 -48)"/><path class="cls-4" d="M84.62,72.46a1,1,0,0,0,0-2,1,1,0,0,0,0,2Z" transform="translate(-48 -48)"/><path class="cls-4" d="M84.27,73.13a1,1,0,0,0,0-2,1,1,0,0,0,0,2Z" transform="translate(-48 -48)"/><path class="cls-4" d="M84.45,72.79a1,1,0,0,0,0-2,1,1,0,0,0,0,2Z" transform="translate(-48 -48)"/><path class="cls-4" d="M83.92,70.77a16.52,16.52,0,0,1-2.17,2l.2-.15L81.5,73a1,1,0,0,0-.46.59,1,1,0,0,0,.7,1.23.94.94,0,0,0,.77-.1,17.71,17.71,0,0,0,2.82-2.51,1,1,0,0,0,.3-.7,1,1,0,0,0-.3-.71.94.94,0,0,0-.7-.29,1,1,0,0,0-.71.29Z" transform="translate(-48 -48)"/><path class="cls-4" d="M124.5,114.35a1,1,0,0,0,0-2,1,1,0,0,0,0,2Z" transform="translate(-48 -48)"/><path class="cls-4" d="M130.48,111.47a1,1,0,0,0,0-2,1,1,0,0,0,0,2Z" transform="translate(-48 -48)"/><path class="cls-4" d="M64,110.66a1,1,0,0,0,0-2,1,1,0,0,0,0,2Z" transform="translate(-48 -48)"/><path class="cls-4" d="M64.56,111.07a1,1,0,0,0,0-2,1,1,0,0,0,0,2Z" transform="translate(-48 -48)"/><path class="cls-4" d="M64.84,111.32a1,1,0,0,0,0-2,1,1,0,0,0,0,2Z" transform="translate(-48 -48)"/><path class="cls-4" d="M65.5,109.57l-.74-.66a1,1,0,0,0-.7-.3,1,1,0,0,0-.71.3.87.87,0,0,0-.25.38.47.47,0,0,0-.06.15l0,.16a.76.76,0,0,0,0,.15,1.31,1.31,0,0,0,.18.66,1.77,1.77,0,0,0,.52.5l.26.16,1.1.68a1,1,0,0,0,.77.1,1,1,0,0,0,.6-.46,1,1,0,0,0-.36-1.36l-.73-.46-.37-.23a3.26,3.26,0,0,1-.34-.22l.2.16-.07-.07.16.21,0-.08.1.24s0,0,0-.06l0,.27s0,0,0-.06l0,.26s0,0,0,0l-.11.24a.08.08,0,0,0,0,0l-.15.21,0,0H63.35l.73.66a1.05,1.05,0,0,0,.71.29,1,1,0,0,0,1-1,1,1,0,0,0-.29-.7Z" transform="translate(-48 -48)"/><path class="cls-3" d="M121.5,80.76c.38.47.62.79,1,1.28s.71,1,1,1.49c.67,1,1.29,2,1.86,3a1,1,0,1,0,1.73-1,42.93,42.93,0,0,0-4.2-6.22,1,1,0,0,0-1.42,0,1,1,0,0,0,0,1.41Z" transform="translate(-48 -48)"/><path class="cls-3" d="M124.63,97.85a8.34,8.34,0,0,1,.38.8l-.1-.24a8.86,8.86,0,0,1,.6,2.2l0-.27s0,.08,0,.11a1.16,1.16,0,0,0,.29.71,1.05,1.05,0,0,0,.71.29,1,1,0,0,0,1-1,9.93,9.93,0,0,0-.39-1.86,10.36,10.36,0,0,0-.75-1.75,1,1,0,0,0-1.36-.36,1,1,0,0,0-.36,1.37Z" transform="translate(-48 -48)"/><path class="cls-3" d="M124.54,96.94l.55,2a1,1,0,0,0,.45.6,1.06,1.06,0,0,0,.78.1,1,1,0,0,0,.59-.46,1,1,0,0,0,.1-.77l-.54-2a1,1,0,0,0-.46-.6,1,1,0,0,0-.77-.1,1,1,0,0,0-.6.46,1.08,1.08,0,0,0-.1.77Z" transform="translate(-48 -48)"/><path class="cls-3" d="M128.69,95.4c-.82,1.41-.18,3.24.24,4.68a27.74,27.74,0,0,0,1.79,4.55,1,1,0,1,0,1.72-1,25.32,25.32,0,0,1-1.5-3.79c-.2-.66-.38-1.34-.52-2a2,2,0,0,1,0-1.4,1,1,0,0,0-1.72-1Z" transform="translate(-48 -48)"/><path class="cls-4" d="M126.52,96.55c.5,1.74,1,3.48,1.52,5.22a17.1,17.1,0,0,0,2,4.66c.7,1.07,2.43.07,1.72-1a15.83,15.83,0,0,1-1.81-4.35c-.5-1.68-1-3.37-1.47-5.06a1,1,0,0,0-1.93.54Z" transform="translate(-48 -48)"/><path class="cls-3" d="M97.22,104.4A11,11,0,0,0,95,113.11a1,1,0,0,0,1.23.7,1,1,0,0,0,.7-1.23,8.83,8.83,0,0,1,1.68-6.77,1,1,0,0,0,0-1.41,1,1,0,0,0-1.42,0Z" transform="translate(-48 -48)"/><path class="cls-4" d="M98.51,107.24a9.85,9.85,0,0,0-1.75,5.08.76.76,0,0,0,.75.75.78.78,0,0,0,.75-.75,8.33,8.33,0,0,1,.46-2.27c0-.09.07-.18.1-.26l.06-.15s0,0,0,0,.17-.37.26-.55a9.59,9.59,0,0,1,.65-1,.75.75,0,0,0-.27-1,.78.78,0,0,0-1,.27Z" transform="translate(-48 -48)"/><path class="cls-4" d="M97,111.56a5.92,5.92,0,0,0,.66,4,.75.75,0,0,0,.45.35.74.74,0,0,0,.58-.08.76.76,0,0,0,.26-1c.07.16,0-.06,0-.09l-.09-.2-.13-.36a7.81,7.81,0,0,1-.26-.82c0-.07,0-.14,0-.22s0-.22,0,0c0-.13,0-.28,0-.41a1.85,1.85,0,0,1,0-.41c0,.17,0,0,0-.05a1.83,1.83,0,0,1,.06-.25.75.75,0,0,0-.52-.92.77.77,0,0,0-.93.52Z" transform="translate(-48 -48)"/><path class="cls-4" d="M98.84,106.52A24.58,24.58,0,0,0,97,114a.75.75,0,0,0,1.5,0,22.07,22.07,0,0,1,1.66-6.74.78.78,0,0,0-.27-1,.77.77,0,0,0-1,.27Z" transform="translate(-48 -48)"/><path class="cls-4" d="M99.13,104.1l-1.51,3.58a.83.83,0,0,0-.08.58.78.78,0,0,0,.35.45.76.76,0,0,0,1-.27l1.52-3.58a.84.84,0,0,0,.07-.58.74.74,0,0,0-.34-.45.76.76,0,0,0-1,.27Z" transform="translate(-48 -48)"/><path class="cls-4" d="M63.75,106.84a.75.75,0,0,0,0-1.5.75.75,0,0,0,0,1.5Z" transform="translate(-48 -48)"/><path class="cls-4" d="M63.78,106.71a.75.75,0,0,0,0-1.5.75.75,0,0,0,0,1.5Z" transform="translate(-48 -48)"/></g></svg>
