<svg width="25" height="25" viewBox="0 0 200 200" fill="none" xmlns="http://www.w3.org/2000/svg">
	<rect x="1" y="1" width="198" height="198" rx="19" fill="white"/>
	<rect x="1" y="1" width="198" height="198" rx="19" stroke="black" stroke-width="2"/>
	<path d="M71.5625 126.25H97.8125C99.0222 126.25 100 125.272 100 124.062C100 122.853 99.0222 121.875 97.8125 121.875H71.5625C70.3528 121.875 69.375 122.853 69.375 124.062C69.375 125.272 70.3528 126.25 71.5625 126.25Z" fill="#231F20"/>
	<path d="M128.438 135H71.5625C70.3528 135 69.375 135.978 69.375 137.188C69.375 138.397 70.3528 139.375 71.5625 139.375H128.438C129.647 139.375 130.625 138.397 130.625 137.188C130.625 135.978 129.647 135 128.438 135Z" fill="#231F20"/>
	<path d="M113.125 148.125H71.5625C70.3528 148.125 69.375 149.103 69.375 150.312C69.375 151.522 70.3528 152.5 71.5625 152.5H113.125C114.335 152.5 115.312 151.522 115.312 150.312C115.312 149.103 114.335 148.125 113.125 148.125Z" fill="#231F20"/>
	<path d="M128.438 78.125C129.646 78.125 130.625 77.1456 130.625 75.9375C130.625 74.7294 129.646 73.75 128.438 73.75C127.229 73.75 126.25 74.7294 126.25 75.9375C126.25 77.1456 127.229 78.125 128.438 78.125Z" fill="#231F20"/>
	<path d="M161.25 56.25H148.125V34.375C148.125 31.9578 146.167 30 143.75 30H56.25C53.8328 30 51.875 31.9578 51.875 34.375V56.25H38.75C33.9134 56.25 30 60.1634 30 65V135C30 139.837 33.9134 143.75 38.75 143.75H51.875V165.625C51.875 168.042 53.8328 170 56.25 170H143.75C146.167 170 148.125 168.042 148.125 165.625V143.75H161.25C166.087 143.75 170 139.837 170 135V65C170 60.1634 166.087 56.25 161.25 56.25ZM56.25 36.5625C56.25 35.3528 57.2278 34.375 58.4375 34.375H141.562C142.772 34.375 143.75 35.3528 143.75 36.5625V56.25H56.25V36.5625ZM135 75.9375C135 79.5622 132.062 82.5 128.438 82.5C124.813 82.5 121.875 79.5622 121.875 75.9375C121.875 72.3128 124.813 69.375 128.438 69.375C132.062 69.375 135 72.3128 135 75.9375ZM143.75 163.438C143.75 164.647 142.772 165.625 141.562 165.625H58.4375C57.2278 165.625 56.25 164.647 56.25 163.438V110.938C56.25 109.728 57.2278 108.75 58.4375 108.75H141.562C142.772 108.75 143.75 109.728 143.75 110.938V163.438ZM150.312 82.5C146.688 82.5 143.75 79.5622 143.75 75.9375C143.75 72.3128 146.688 69.375 150.312 69.375C153.937 69.375 156.875 72.3128 156.875 75.9375C156.875 79.5622 153.937 82.5 150.312 82.5Z" fill="#231F20"/>
	<path d="M150.312 78.125C151.521 78.125 152.5 77.1456 152.5 75.9375C152.5 74.7294 151.521 73.75 150.312 73.75C149.104 73.75 148.125 74.7294 148.125 75.9375C148.125 77.1456 149.104 78.125 150.312 78.125Z" fill="#231F20"/>
</svg>
