<?xml version="1.0" encoding="iso-8859-1"?>
<svg fill="#ffb314" height="25px" width="25px" version="1.1" id="Layer_1" xmlns="http://www.w3.org/2000/svg" xmlns:xlink="http://www.w3.org/1999/xlink"
	 viewBox="0 0 490.667 490.667" xml:space="preserve">
<g>
	<g>
		<path d="M245.333,0C110.059,0,0,110.059,0,245.333s110.059,245.333,245.333,245.333s245.333-110.059,245.333-245.333
			S380.608,0,245.333,0z M402.219,210.219l-70.635,70.635l19.648,98.24c0.768,1.472,1.195,3.136,1.195,4.907
			c0,5.973-5.525,10.624-10.88,10.667h-0.213c-1.771,0-3.563-0.448-5.184-1.344l-90.816-50.453l-90.816,50.453
			c-3.627,2.027-8.107,1.771-11.477-0.704c-3.349-2.453-4.971-6.635-4.16-10.709l20.203-101.056l-70.635-70.635
			c-2.901-2.901-3.883-7.211-2.517-11.072c1.344-3.861,4.821-6.613,8.896-7.083l90.539-10.048l50.667-91.179
			c3.755-6.763,14.891-6.763,18.645,0l50.667,91.179l90.539,10.048c4.075,0.448,7.531,3.2,8.896,7.083
			C406.101,203.008,405.099,207.317,402.219,210.219z"/>
	</g>
</g>
</svg>
