<svg id="Layer_1" data-name="Layer 1" xmlns="http://www.w3.org/2000/svg" viewBox="0 0 122.88 63.67"><defs><style>.cls-1{fill-rule:evenodd;}</style></defs><title>car-door</title><path class="cls-1" d="M7.69,25.88c-8.3-4.22-7.35-8.92,1-8.43L10.55,21,14.4,9c1.51-4.71,4-9,9-9H66.89c4.24,0,6.94,3.09,8.37,7A9.88,9.88,0,0,1,79,6.69h24.8c3.38,0,6.2.12,9.29,2.32a12.64,12.64,0,0,1,2.66,2.57,32.64,32.64,0,0,1,3.39,6.15l3.2,6.66a2.53,2.53,0,0,1,.25,2.64l-2.52,8.19c-.2.45-.6.64-1.29.5a10.51,10.51,0,0,0-11.6,9c-.06.53,0,1.22-.44,1.54a1.48,1.48,0,0,1-1.09.15H87.15c-.1,2.72-.3,5.83-.52,9.46v5a2.81,2.81,0,0,1-2.81,2.8h-12a2.81,2.81,0,0,1-2.81-2.8V58.62H18.18v2.25a2.82,2.82,0,0,1-2.81,2.8H3.4a2.81,2.81,0,0,1-2.8-2.8V54.4a3,3,0,0,1,0-.43c-.91-11.62-2.19-22.1,7.06-28.09ZM86.78,37.44H85.31a.84.84,0,0,0-.85,1,1.07,1.07,0,0,0,1,1h19.89a.83.83,0,0,0,.84-1h0a1.07,1.07,0,0,0-1-1Zm-2.32,1ZM79.27,11h27.56a7.4,7.4,0,0,1,4.78,3.28l5.5,11.26.11,1.07H83.3L79.27,11Zm32.41,19.19h5.37a1.07,1.07,0,0,1,1,1h0a.83.83,0,0,1-.84.95h-5.37a1.07,1.07,0,0,1-1-.95h0a.83.83,0,0,1,.84-1ZM23,39.66,12.34,38.32C9.83,38,9.16,39.1,10,41.26l1.15,2.79a4.06,4.06,0,0,0,1.44,1.61,4.82,4.82,0,0,0,2.38.65l9.48.08c2.29,0,3.28-.92,2.56-3A5.11,5.11,0,0,0,23,39.66Zm41.27,0,10.63-1.34c2.51-.28,3.19.78,2.33,2.94l-1.15,2.79a4.06,4.06,0,0,1-1.44,1.61,4.82,4.82,0,0,1-2.38.65l-9.48.08c-2.29,0-3.28-.92-2.56-3a5.13,5.13,0,0,1,4-3.71ZM14.54,23.59h60l-2.9-12c-.79-3.66-3.08-6.84-6.84-6.84H25c-3.76,0-5.69,3.26-6.85,6.84l-3.61,12v0Z"/></svg>