<svg width="25" height="25" viewBox="0 0 100 100" fill="none" xmlns="http://www.w3.org/2000/svg">
	<g clip-path="url(#clip0_81_13)">
		<path d="M27.1193 44.5271C31.2285 44.5271 34.5596 41.2954 34.5596 37.309C34.5596 33.3225 31.2285 30.0908 27.1193 30.0908C23.0101 30.0908 19.679 33.3225 19.679 37.309C19.679 41.2954 23.0101 44.5271 27.1193 44.5271Z" fill="black"/>
		<path d="M43.251 35.2666H73.144C77.5555 35.2666 80.1234 38.0133 80.1234 41.6543V52.1302H43.251V35.2666Z" fill="black"/>
		<path d="M35.0864 39.0378V45.2978H23.6296C18.0987 45.2978 18.0987 52.2604 23.6296 52.2604H38.7078C40.8806 52.2604 42.2633 50.5358 42.2633 48.6194V39.0378C42.2633 33.7999 35.0864 33.7999 35.0864 39.0378Z" fill="black"/>
		<path d="M18.1646 29.2638C18.1646 23.5787 10 23.5787 10 29.2638V75H18.3621V63.1827H81.8354V74.9361H90V39.5481C90 33.5436 81.7696 33.5436 81.7696 39.5481V53.665H18.1646V29.2638Z" fill="black"/>
		<path d="M10 1H90C94.9706 1 99 5.02944 99 10V90C99 94.9706 94.9706 99 90 99H10C5.02944 99 1 94.9706 1 90V10C1 5.02944 5.02944 1 10 1Z" stroke="black" stroke-width="2"/>
	</g>
	<defs>
		<clipPath id="clip0_81_13">
			<rect width="100" height="100" fill="white"/>
		</clipPath>
	</defs>
</svg>
