<svg width="25" height="25" viewBox="0 0 100 100" fill="none" xmlns="http://www.w3.org/2000/svg">
	<g clip-path="url(#clip0_1_2)">
		<rect width="100" height="100" rx="10" fill="transparent"/>
		<g clip-path="url(#clip1_1_2)">
			<path d="M74 15.44C74 17.44 61.24 19.34 50.5 19.44C38.67 19.55 25 17.49 25 15.44C25 13.39 38.67 11.33 50.5 11.44C61.24 11.54 74 13.44 74 15.44Z" stroke="#1D1D1B" stroke-width="2" stroke-miterlimit="10"/>
			<path d="M75 86.44C75 88.44 62.24 90.34 51.5 90.44C39.67 90.55 26 88.44 26 86.44" stroke="#1D1D1B" stroke-width="2" stroke-miterlimit="10"/>
			<path d="M75 66.44C75 68.44 62.24 70.34 51.5 70.44C39.67 70.55 26 68.44 26 66.44" stroke="#1D1D1B" stroke-width="2" stroke-miterlimit="10"/>
			<path d="M74 41.44C74 43.44 61.24 45.34 50.5 45.44C38.67 45.55 25 43.44 25 41.44" stroke="#1D1D1B" stroke-width="2" stroke-miterlimit="10"/>
			<path d="M25.5 15.44L26.5 86.44" stroke="#1D1D1B" stroke-width="2" stroke-miterlimit="10"/>
			<path d="M73.5 15.44L74.5 86.44" stroke="#1D1D1B" stroke-width="2" stroke-miterlimit="10"/>
			<path d="M62.5 14.94C63.8807 14.94 65 14.7161 65 14.44C65 14.1639 63.8807 13.94 62.5 13.94C61.1193 13.94 60 14.1639 60 14.44C60 14.7161 61.1193 14.94 62.5 14.94Z" stroke="#1D1D1B" stroke-width="0.75" stroke-miterlimit="10"/>
			<path d="M65 16.44C65 16.72 63.88 16.94 62.5 16.94C61.12 16.94 60 16.72 60 16.44" stroke="#1D1D1B" stroke-width="0.75" stroke-miterlimit="10"/>
			<path d="M60 14.44V16.44" stroke="#1D1D1B" stroke-width="0.75" stroke-miterlimit="10"/>
			<path d="M65 14.44V16.44" stroke="#1D1D1B" stroke-width="0.75" stroke-miterlimit="10"/>
			<path d="M25.76 86.79C25.9121 86.7707 26.052 86.6966 26.1534 86.5815C26.2548 86.4665 26.3108 86.3184 26.3108 86.165C26.3108 86.0116 26.2548 85.8635 26.1534 85.7485C26.052 85.6334 25.9121 85.5593 25.76 85.54C25.6078 85.5593 25.468 85.6334 25.3666 85.7485C25.2652 85.8635 25.2092 86.0116 25.2092 86.165C25.2092 86.3184 25.2652 86.4665 25.3666 86.5815C25.468 86.6966 25.6078 86.7707 25.76 86.79V86.79Z" fill="#1D1D1B"/>
			<path d="M25.6 86.85C25.7521 86.8307 25.892 86.7566 25.9934 86.6415C26.0948 86.5265 26.1508 86.3784 26.1508 86.225C26.1508 86.0716 26.0948 85.9235 25.9934 85.8085C25.892 85.6934 25.7521 85.6193 25.6 85.6C25.4478 85.6193 25.308 85.6934 25.2066 85.8085C25.1052 85.9235 25.0492 86.0716 25.0492 86.225C25.0492 86.3784 25.1052 86.5265 25.2066 86.6415C25.308 86.7566 25.4478 86.8307 25.6 86.85V86.85Z" fill="#1D1D1B"/>
			<path d="M26.9 87.22C27.0521 87.2007 27.192 87.1266 27.2934 87.0115C27.3948 86.8965 27.4508 86.7484 27.4508 86.595C27.4508 86.4416 27.3948 86.2935 27.2934 86.1785C27.192 86.0634 27.0521 85.9893 26.9 85.97C26.7478 85.9893 26.608 86.0634 26.5066 86.1785C26.4052 86.2935 26.3492 86.4416 26.3492 86.595C26.3492 86.7484 26.4052 86.8965 26.5066 87.0115C26.608 87.1266 26.7478 87.2007 26.9 87.22V87.22Z" fill="#1D1D1B"/>
			<path d="M75.36 87.01C75.5121 86.9907 75.652 86.9166 75.7534 86.8015C75.8548 86.6865 75.9108 86.5384 75.9108 86.385C75.9108 86.2316 75.8548 86.0835 75.7534 85.9685C75.652 85.8534 75.5121 85.7793 75.36 85.76C75.2078 85.7793 75.068 85.8534 74.9666 85.9685C74.8652 86.0835 74.8092 86.2316 74.8092 86.385C74.8092 86.5384 74.8652 86.6865 74.9666 86.8015C75.068 86.9166 75.2078 86.9907 75.36 87.01V87.01Z" fill="#1D1D1B"/>
			<path d="M75.38 87.01C75.5322 86.9907 75.672 86.9166 75.7734 86.8015C75.8748 86.6865 75.9308 86.5384 75.9308 86.385C75.9308 86.2316 75.8748 86.0835 75.7734 85.9685C75.672 85.8534 75.5322 85.7793 75.38 85.76C75.2279 85.7793 75.088 85.8534 74.9866 85.9685C74.8852 86.0835 74.8292 86.2316 74.8292 86.385C74.8292 86.5384 74.8852 86.6865 74.9866 86.8015C75.088 86.9166 75.2279 86.9907 75.38 87.01Z" fill="#1D1D1B"/>
			<path d="M75.38 87.01C75.5322 86.9907 75.672 86.9166 75.7734 86.8015C75.8748 86.6865 75.9308 86.5384 75.9308 86.385C75.9308 86.2316 75.8748 86.0835 75.7734 85.9685C75.672 85.8534 75.5322 85.7793 75.38 85.76C75.2279 85.7793 75.088 85.8534 74.9866 85.9685C74.8852 86.0835 74.8292 86.2316 74.8292 86.385C74.8292 86.5384 74.8852 86.6865 74.9866 86.8015C75.088 86.9166 75.2279 86.9907 75.38 87.01Z" fill="#1D1D1B"/>
			<path d="M75.38 87.01C75.5322 86.9907 75.672 86.9166 75.7734 86.8015C75.8748 86.6865 75.9308 86.5384 75.9308 86.385C75.9308 86.2316 75.8748 86.0835 75.7734 85.9685C75.672 85.8534 75.5322 85.7793 75.38 85.76C75.2279 85.7793 75.088 85.8534 74.9866 85.9685C74.8852 86.0835 74.8292 86.2316 74.8292 86.385C74.8292 86.5384 74.8852 86.6865 74.9866 86.8015C75.088 86.9166 75.2279 86.9907 75.38 87.01Z" fill="#1D1D1B"/>
			<path d="M75.38 86.98C75.5322 86.9607 75.672 86.8866 75.7734 86.7715C75.8748 86.6565 75.9308 86.5084 75.9308 86.355C75.9308 86.2016 75.8748 86.0535 75.7734 85.9385C75.672 85.8234 75.5322 85.7493 75.38 85.73C75.2279 85.7493 75.088 85.8234 74.9866 85.9385C74.8852 86.0535 74.8292 86.2016 74.8292 86.355C74.8292 86.5084 74.8852 86.6565 74.9866 86.7715C75.088 86.8866 75.2279 86.9607 75.38 86.98V86.98Z" fill="#1D1D1B"/>
			<path d="M75.39 86.98C75.5421 86.9607 75.682 86.8866 75.7834 86.7715C75.8848 86.6565 75.9408 86.5084 75.9408 86.355C75.9408 86.2016 75.8848 86.0535 75.7834 85.9385C75.682 85.8234 75.5421 85.7493 75.39 85.73C75.2378 85.7493 75.098 85.8234 74.9966 85.9385C74.8952 86.0535 74.8392 86.2016 74.8392 86.355C74.8392 86.5084 74.8952 86.6565 74.9966 86.7715C75.098 86.8866 75.2378 86.9607 75.39 86.98V86.98Z" fill="#1D1D1B"/>
			<path d="M74.59 87.23C74.7421 87.2107 74.882 87.1366 74.9834 87.0215C75.0848 86.9065 75.1408 86.7584 75.1408 86.605C75.1408 86.4516 75.0848 86.3035 74.9834 86.1885C74.882 86.0734 74.7421 85.9993 74.59 85.98C74.4378 85.9993 74.298 86.0734 74.1966 86.1885C74.0952 86.3035 74.0392 86.4516 74.0392 86.605C74.0392 86.7584 74.0952 86.9065 74.1966 87.0215C74.298 87.1366 74.4378 87.2107 74.59 87.23V87.23Z" fill="#1D1D1B"/>
			<path d="M74.1 87.28C74.2522 87.2607 74.392 87.1866 74.4934 87.0715C74.5948 86.9565 74.6508 86.8084 74.6508 86.655C74.6508 86.5016 74.5948 86.3535 74.4934 86.2385C74.392 86.1234 74.2522 86.0493 74.1 86.03C73.9479 86.0493 73.808 86.1234 73.7066 86.2385C73.6052 86.3535 73.5492 86.5016 73.5492 86.655C73.5492 86.8084 73.6052 86.9565 73.7066 87.0715C73.808 87.1866 73.9479 87.2607 74.1 87.28Z" fill="#1D1D1B"/>
			<path d="M75.37 67.12C75.5222 67.1007 75.662 67.0266 75.7634 66.9115C75.8648 66.7965 75.9208 66.6484 75.9208 66.495C75.9208 66.3416 75.8648 66.1935 75.7634 66.0785C75.662 65.9634 75.5222 65.8893 75.37 65.87C75.2179 65.8893 75.078 65.9634 74.9766 66.0785C74.8752 66.1935 74.8192 66.3416 74.8192 66.495C74.8192 66.6484 74.8752 66.7965 74.9766 66.9115C75.078 67.0266 75.2179 67.1007 75.37 67.12V67.12Z" fill="#1D1D1B"/>
			<path d="M75.38 67.1C75.5322 67.0807 75.672 67.0066 75.7734 66.8915C75.8748 66.7765 75.9308 66.6284 75.9308 66.475C75.9308 66.3216 75.8748 66.1735 75.7734 66.0585C75.672 65.9434 75.5322 65.8693 75.38 65.85C75.2279 65.8693 75.088 65.9434 74.9866 66.0585C74.8852 66.1735 74.8292 66.3216 74.8292 66.475C74.8292 66.6284 74.8852 66.7765 74.9866 66.8915C75.088 67.0066 75.2279 67.0807 75.38 67.1V67.1Z" fill="#1D1D1B"/>
			<path d="M74.38 41.99C74.5322 41.9707 74.672 41.8966 74.7734 41.7815C74.8748 41.6665 74.9308 41.5184 74.9308 41.365C74.9308 41.2116 74.8748 41.0635 74.7734 40.9485C74.672 40.8334 74.5322 40.7593 74.38 40.74C74.2279 40.7593 74.088 40.8334 73.9866 40.9485C73.8852 41.0635 73.8292 41.2116 73.8292 41.365C73.8292 41.5184 73.8852 41.6665 73.9866 41.7815C74.088 41.8966 74.2279 41.9707 74.38 41.99V41.99Z" fill="#1D1D1B"/>
			<path d="M74.4 41.98C74.5522 41.9607 74.692 41.8866 74.7934 41.7715C74.8948 41.6565 74.9508 41.5084 74.9508 41.355C74.9508 41.2016 74.8948 41.0535 74.7934 40.9385C74.692 40.8234 74.5522 40.7493 74.4 40.73C74.2479 40.7493 74.108 40.8234 74.0066 40.9385C73.9052 41.0535 73.8492 41.2016 73.8492 41.355C73.8492 41.5084 73.9052 41.6565 74.0066 41.7715C74.108 41.8866 74.2479 41.9607 74.4 41.98V41.98Z" fill="#1D1D1B"/>
			<path d="M25.28 42.89C25.6115 42.89 25.9295 42.7583 26.1639 42.5239C26.3983 42.2895 26.53 41.9715 26.53 41.64C26.53 41.3085 26.3983 40.9905 26.1639 40.7561C25.9295 40.5217 25.6115 40.39 25.28 40.39C24.9485 40.39 24.6305 40.5217 24.3961 40.7561C24.1617 40.9905 24.03 41.3085 24.03 41.64C24.03 41.9715 24.1617 42.2895 24.3961 42.5239C24.6305 42.7583 24.9485 42.89 25.28 42.89V42.89Z" fill="#1D1D1B"/>
			<path d="M25.27 42.8C25.6015 42.8 25.9195 42.6683 26.1539 42.4339C26.3883 42.1995 26.52 41.8815 26.52 41.55C26.52 41.2185 26.3883 40.9005 26.1539 40.6661C25.9195 40.4317 25.6015 40.3 25.27 40.3C24.9385 40.3 24.6205 40.4317 24.3861 40.6661C24.1517 40.9005 24.02 41.2185 24.02 41.55C24.02 41.8815 24.1517 42.1995 24.3861 42.4339C24.6205 42.6683 24.9385 42.8 25.27 42.8V42.8Z" fill="#1D1D1B"/>
			<path d="M25.28 42.8C25.6115 42.8 25.9295 42.6683 26.1639 42.4339C26.3983 42.1995 26.53 41.8815 26.53 41.55C26.53 41.2185 26.3983 40.9005 26.1639 40.6661C25.9295 40.4317 25.6115 40.3 25.28 40.3C24.9485 40.3 24.6305 40.4317 24.3961 40.6661C24.1617 40.9005 24.03 41.2185 24.03 41.55C24.03 41.8815 24.1617 42.1995 24.3961 42.4339C24.6305 42.6683 24.9485 42.8 25.28 42.8V42.8Z" fill="#1D1D1B"/>
			<path d="M74.07 43.05C74.4015 43.05 74.7195 42.9183 74.9539 42.6839C75.1883 42.4495 75.32 42.1315 75.32 41.8C75.32 41.4685 75.1883 41.1505 74.9539 40.9161C74.7195 40.6817 74.4015 40.55 74.07 40.55C73.7385 40.55 73.4205 40.6817 73.1861 40.9161C72.9517 41.1505 72.82 41.4685 72.82 41.8C72.82 42.1315 72.9517 42.4495 73.1861 42.6839C73.4205 42.9183 73.7385 43.05 74.07 43.05Z" fill="#1D1D1B"/>
			<path d="M25.62 67.12C25.7721 67.1007 25.912 67.0266 26.0134 66.9115C26.1148 66.7965 26.1708 66.6484 26.1708 66.495C26.1708 66.3416 26.1148 66.1935 26.0134 66.0785C25.912 65.9634 25.7721 65.8893 25.62 65.87C25.4678 65.8893 25.328 65.9634 25.2266 66.0785C25.1252 66.1935 25.0692 66.3416 25.0692 66.495C25.0692 66.6484 25.1252 66.7965 25.2266 66.9115C25.328 67.0266 25.4678 67.1007 25.62 67.12V67.12Z" fill="#1D1D1B"/>
			<path d="M26.03 68.2C26.3615 68.2 26.6795 68.0683 26.9139 67.8339C27.1483 67.5995 27.28 67.2815 27.28 66.95C27.28 66.6185 27.1483 66.3005 26.9139 66.0661C26.6795 65.8317 26.3615 65.7 26.03 65.7C25.6985 65.7 25.3805 65.8317 25.1461 66.0661C24.9117 66.3005 24.78 66.6185 24.78 66.95C24.78 67.2815 24.9117 67.5995 25.1461 67.8339C25.3805 68.0683 25.6985 68.2 26.03 68.2V68.2Z" fill="#1D1D1B"/>
			<path d="M26.2 87.59C26.5315 87.59 26.8495 87.4583 27.0839 87.2239C27.3183 86.9895 27.45 86.6715 27.45 86.34C27.45 86.0085 27.3183 85.6905 27.0839 85.4561C26.8495 85.2217 26.5315 85.09 26.2 85.09C25.8685 85.09 25.5505 85.2217 25.3161 85.4561C25.0817 85.6905 24.95 86.0085 24.95 86.34C24.95 86.6715 25.0817 86.9895 25.3161 87.2239C25.5505 87.4583 25.8685 87.59 26.2 87.59V87.59Z" fill="#1D1D1B"/>
			<path d="M74.81 87.59C75.1415 87.59 75.4595 87.4583 75.6939 87.2239C75.9283 86.9895 76.06 86.6715 76.06 86.34C76.06 86.0085 75.9283 85.6905 75.6939 85.4561C75.4595 85.2217 75.1415 85.09 74.81 85.09C74.4785 85.09 74.1605 85.2217 73.9261 85.4561C73.6917 85.6905 73.56 86.0085 73.56 86.34C73.56 86.6715 73.6917 86.9895 73.9261 87.2239C74.1605 87.4583 74.4785 87.59 74.81 87.59Z" fill="#1D1D1B"/>
			<path d="M74.71 67.88C75.0415 67.88 75.3595 67.7483 75.5939 67.5139C75.8283 67.2795 75.96 66.9615 75.96 66.63C75.96 66.2985 75.8283 65.9805 75.5939 65.7461C75.3595 65.5117 75.0415 65.38 74.71 65.38C74.3785 65.38 74.0605 65.5117 73.8261 65.7461C73.5917 65.9805 73.46 66.2985 73.46 66.63C73.46 66.9615 73.5917 67.2795 73.8261 67.5139C74.0605 67.7483 74.3785 67.88 74.71 67.88Z" fill="#1D1D1B"/>
		</g>
	</g>
	<rect x="1.5" y="1.5" width="97" height="97" rx="8.5" stroke="black" stroke-width="3"/>
	<defs>
		<clipPath id="clip0_1_2">
			<rect width="100" height="100" rx="10" fill="white"/>
		</clipPath>
		<clipPath id="clip1_1_2">
			<rect width="83.19" height="117.44" fill="white" transform="translate(24 -26)"/>
		</clipPath>
	</defs>
</svg>
