<svg width="25" height="25" viewBox="0 0 104 104" fill="none" xmlns="http://www.w3.org/2000/svg">
<path d="M91.78 2H12.22C6.5757 2 2 6.5757 2 12.22V91.78C2 97.424 6.5757 102 12.22 102H91.78C97.424 102 102 97.424 102 91.78V12.22C102 6.5757 97.424 2 91.78 2Z" stroke="#1D1D1B" stroke-width="3" stroke-miterlimit="10"/>
<path d="M52 97C76.853 97 97 76.853 97 52C97 27.1472 76.853 7 52 7C27.1472 7 7 27.1472 7 52C7 76.853 27.1472 97 52 97Z" fill="#A5A5A5"/>
<path d="M51.5 84C68.897 84 83 69.897 83 52.5C83 35.103 68.897 21 51.5 21C34.103 21 20 35.103 20 52.5C20 69.897 34.103 84 51.5 84Z" fill="#186CA3"/>
<path d="M52 70C61.941 70 70 61.941 70 52C70 42.0589 61.941 34 52 34C42.0589 34 34 42.0589 34 52C34 61.941 42.0589 70 52 70Z" fill="white"/>
<path d="M52 69C61.389 69 69 61.389 69 52C69 42.6112 61.389 35 52 35C42.6112 35 35 42.6112 35 52C35 61.389 42.6112 69 52 69Z" stroke="#C80A2A" stroke-width="0.5" stroke-miterlimit="10"/>
<path d="M52 67.5C60.56 67.5 67.5 60.56 67.5 52C67.5 43.4396 60.56 36.5 52 36.5C43.4396 36.5 36.5 43.4396 36.5 52C36.5 60.56 43.4396 67.5 52 67.5Z" fill="#186CA3"/>
<path d="M21.0488 64V44.3477H14.5449V39.7422H33.1953V44.3477H26.5684V64H21.0488Z" fill="black"/>
<path d="M21.0488 64H20.5488V64.5H21.0488V64ZM21.0488 44.3477H21.5488V43.8477H21.0488V44.3477ZM14.5449 44.3477H14.0449V44.8477H14.5449V44.3477ZM14.5449 39.7422V39.2422H14.0449V39.7422H14.5449ZM33.1953 39.7422H33.6953V39.2422H33.1953V39.7422ZM33.1953 44.3477V44.8477H33.6953V44.3477H33.1953ZM26.5684 44.3477V43.8477H26.0684V44.3477H26.5684ZM26.5684 64V64.5H27.0684V64H26.5684ZM21.5488 64V44.3477H20.5488V64H21.5488ZM21.0488 43.8477H14.5449V44.8477H21.0488V43.8477ZM15.0449 44.3477V39.7422H14.0449V44.3477H15.0449ZM14.5449 40.2422H33.1953V39.2422H14.5449V40.2422ZM32.6953 39.7422V44.3477H33.6953V39.7422H32.6953ZM33.1953 43.8477H26.5684V44.8477H33.1953V43.8477ZM26.0684 44.3477V64H27.0684V44.3477H26.0684ZM26.5684 63.5H21.0488V64.5H26.5684V63.5Z" fill="white"/>
<path d="M43.4414 62.893L44.5488 58.34C46.5176 59.348 48.5508 59.852 50.6484 59.852C51.8789 59.852 52.828 59.617 53.496 59.148C54.164 58.68 54.498 58.041 54.498 57.232C54.498 56.494 54.188 55.873 53.566 55.369C52.957 54.854 51.9082 54.332 50.4199 53.805C45.9785 52.258 43.7578 49.873 43.7578 46.6504C43.7578 44.5293 44.5898 42.7832 46.2539 41.4121C47.918 40.0293 50.1504 39.3379 52.951 39.3379C55.26 39.3379 57.322 39.748 59.139 40.5684L57.908 44.998C56.338 44.2246 54.645 43.8379 52.828 43.8379C51.6914 43.8379 50.8184 44.0605 50.209 44.5059C49.6113 44.9512 49.3125 45.5078 49.3125 46.1758C49.3125 46.9023 49.6348 47.4941 50.2793 47.9512C50.9238 48.3965 52.102 48.9473 53.812 49.6035C55.969 50.4004 57.557 51.3789 58.576 52.539C59.596 53.699 60.105 55.129 60.105 56.828C60.105 57.859 59.9 58.826 59.49 59.729C59.092 60.619 58.5 61.416 57.715 62.119C56.941 62.811 55.916 63.355 54.639 63.754C53.373 64.152 51.9316 64.352 50.3145 64.352C48.9902 64.352 47.6953 64.211 46.4297 63.93C45.1641 63.637 44.168 63.291 43.4414 62.893Z" fill="black"/>
<path d="M43.4414 62.893L42.9556 62.774L42.865 63.147L43.201 63.331L43.4414 62.893ZM44.5488 58.34L44.7767 57.895L44.2127 57.606L44.063 58.222L44.5488 58.34ZM53.566 55.369L53.243 55.751L53.251 55.757L53.566 55.369ZM50.4199 53.805L50.5869 53.333H50.5844L50.4199 53.805ZM46.2539 41.4121L46.5719 41.798L46.5735 41.7967L46.2539 41.4121ZM59.139 40.5684L59.62 40.7022L59.735 40.2891L59.344 40.1127L59.139 40.5684ZM57.908 44.998L57.687 45.4466L58.228 45.7132L58.39 45.1319L57.908 44.998ZM50.209 44.5059L49.914 44.1021L49.9102 44.1049L50.209 44.5059ZM50.2793 47.9512L49.9901 48.3591L49.9951 48.3625L50.2793 47.9512ZM53.812 49.6035L53.633 50.0704L53.639 50.0725L53.812 49.6035ZM59.49 59.729L59.035 59.522L59.034 59.524L59.49 59.729ZM57.715 62.119L58.048 62.492L57.715 62.119ZM54.639 63.754L54.49 63.277H54.489L54.639 63.754ZM46.4297 63.93L46.3169 64.417L46.3212 64.418L46.4297 63.93ZM43.9272 63.011L45.0347 58.458L44.063 58.222L42.9556 62.774L43.9272 63.011ZM44.321 58.785C46.3563 59.827 48.4672 60.352 50.6484 60.352V59.352C48.6343 59.352 46.6788 58.869 44.7767 57.895L44.321 58.785ZM50.6484 60.352C51.9325 60.352 52.998 60.109 53.783 59.558L53.209 58.739C52.658 59.126 51.8253 59.352 50.6484 59.352V60.352ZM53.783 59.558C54.583 58.996 54.998 58.206 54.998 57.232H53.998C53.998 57.876 53.745 58.363 53.209 58.739L53.783 59.558ZM54.998 57.232C54.998 56.33 54.608 55.571 53.881 54.981L53.251 55.757C53.767 56.175 53.998 56.659 53.998 57.232H54.998ZM53.889 54.987C53.208 54.411 52.088 53.865 50.5869 53.333L50.2529 54.276C51.7288 54.799 52.706 55.296 53.243 55.751L53.889 54.987ZM50.5844 53.333C48.4087 52.575 46.825 51.6275 45.7893 50.5152C44.764 49.4142 44.2578 48.1337 44.2578 46.6504H43.2578C43.2578 48.3897 43.862 49.9129 45.0574 51.1967C46.2424 52.469 47.9897 53.488 50.2555 54.277L50.5844 53.333ZM44.2578 46.6504C44.2578 44.6815 45.0209 43.0759 46.5719 41.798L45.936 41.0262C44.1588 42.4905 43.2578 44.3771 43.2578 46.6504H44.2578ZM46.5735 41.7967C48.1241 40.5081 50.2322 39.8379 52.951 39.8379V38.8379C50.0686 38.8379 47.7118 39.5505 45.9343 41.0276L46.5735 41.7967ZM52.951 39.8379C55.2 39.8379 57.191 40.2372 58.933 41.024L59.344 40.1127C57.454 39.2589 55.32 38.8379 52.951 38.8379V39.8379ZM58.657 40.4345L57.426 44.8642L58.39 45.1319L59.62 40.7022L58.657 40.4345ZM58.129 44.5495C56.487 43.7409 54.718 43.3379 52.828 43.3379V44.3379C54.571 44.3379 56.188 44.7083 57.687 45.4466L58.129 44.5495ZM52.828 43.3379C51.6361 43.3379 50.6425 43.5698 49.914 44.1022L50.504 44.9096C50.9942 44.5513 51.7467 44.3379 52.828 44.3379V43.3379ZM49.9102 44.1049C49.2028 44.632 48.8125 45.33 48.8125 46.1758H49.8125C49.8125 45.6857 50.0198 45.2703 50.5077 44.9068L49.9102 44.1049ZM48.8125 46.1758C48.8125 47.0803 49.2269 47.8178 49.9901 48.359L50.5685 47.5433C50.0427 47.1704 49.8125 46.7244 49.8125 46.1758H48.8125ZM49.9951 48.3625C50.6935 48.8451 51.9215 49.4137 53.633 50.0704L53.992 49.1367C52.282 48.4808 51.1541 47.9479 50.5635 47.5398L49.9951 48.3625ZM53.639 50.0725C55.753 50.8536 57.256 51.7945 58.201 52.869L58.952 52.209C57.857 50.9633 56.185 49.9472 53.986 49.1345L53.639 50.0725ZM58.201 52.869C59.132 53.929 59.605 55.237 59.605 56.828H60.605C60.605 55.021 60.06 53.47 58.952 52.209L58.201 52.869ZM59.605 56.828C59.605 57.791 59.414 58.687 59.035 59.522L59.945 59.935C60.386 58.965 60.605 57.928 60.605 56.828H59.605ZM59.034 59.524C58.666 60.346 58.118 61.087 57.381 61.747L58.048 62.492C58.882 61.745 59.517 60.892 59.947 59.933L59.034 59.524ZM57.382 61.746C56.675 62.378 55.718 62.894 54.49 63.277L54.788 64.231C56.114 63.817 57.208 63.243 58.048 62.492L57.382 61.746ZM54.489 63.277C53.281 63.657 51.8914 63.852 50.3145 63.852V64.852C51.9718 64.852 53.465 64.647 54.789 64.231L54.489 63.277ZM50.3145 63.852C49.0259 63.852 47.7674 63.715 46.5382 63.442L46.3212 64.418C47.6232 64.707 48.9545 64.852 50.3145 64.852V63.852ZM46.5424 63.443C45.2992 63.155 44.3523 62.822 43.6818 62.454L43.201 63.331C43.9837 63.76 45.0289 64.119 46.3169 64.417L46.5424 63.443Z" fill="white"/>
<path d="M84.977 57.777H78.033L76.293 64H70.615L78.033 39.7422H85.223L92.746 64H86.84L84.977 57.777ZM78.824 53.664H84.186L82.674 48.5137C82.369 47.5293 81.959 45.9707 81.443 43.8379H81.373C81.314 44.0605 81.15 44.7578 80.881 45.9297C80.623 47.1016 80.418 47.9629 80.266 48.5137L78.824 53.664Z" fill="black"/>
<path d="M84.977 57.777L85.456 57.634L85.349 57.277H84.977V57.777ZM78.033 57.777V57.277H77.654L77.552 57.643L78.033 57.777ZM76.293 64V64.5H76.672L76.774 64.135L76.293 64ZM70.615 64L70.137 63.854L69.939 64.5H70.615V64ZM78.033 39.7422V39.2422H77.663L77.555 39.596L78.033 39.7422ZM85.223 39.7422L85.7 39.5941L85.591 39.2422H85.223V39.7422ZM92.746 64V64.5H93.425L93.224 63.852L92.746 64ZM86.84 64L86.361 64.143L86.468 64.5H86.84V64ZM78.824 53.664L78.343 53.529L78.165 54.164H78.824V53.664ZM84.186 53.664V54.164H84.853L84.665 53.523L84.186 53.664ZM82.674 48.5137L83.154 48.3728L83.151 48.3658L82.674 48.5137ZM81.443 43.8379L81.929 43.7204L81.837 43.3379H81.443V43.8379ZM81.373 43.8379V43.3379H80.988L80.89 43.7106L81.373 43.8379ZM80.881 45.9297L80.394 45.8176L80.393 45.8223L80.881 45.9297ZM80.266 48.5137L80.747 48.6484L80.748 48.647L80.266 48.5137ZM84.977 57.277H78.033V58.277H84.977V57.277ZM77.552 57.643L75.811 63.865L76.774 64.135L78.515 57.912L77.552 57.643ZM76.293 63.5H70.615V64.5H76.293V63.5ZM71.093 64.146L78.511 39.8884L77.555 39.596L70.137 63.854L71.093 64.146ZM78.033 40.2422H85.223V39.2422H78.033V40.2422ZM84.745 39.8903L92.269 64.148L93.224 63.852L85.7 39.5941L84.745 39.8903ZM92.746 63.5H86.84V64.5H92.746V63.5ZM87.319 63.857L85.456 57.634L84.498 57.921L86.361 64.143L87.319 63.857ZM78.824 54.164H84.186V53.164H78.824V54.164ZM84.665 53.523L83.154 48.3729L82.194 48.6545L83.706 53.805L84.665 53.523ZM83.151 48.3658C82.852 47.3974 82.445 45.8517 81.929 43.7204L80.957 43.9554C81.473 46.0897 81.887 47.6612 82.196 48.6615L83.151 48.3658ZM81.443 43.3379H81.373V44.3379H81.443V43.3379ZM80.89 43.7106C80.828 43.9429 80.662 44.6499 80.394 45.8176L81.368 46.0418C81.639 44.8657 81.801 44.1782 81.857 43.9651L80.89 43.7106ZM80.393 45.8223C80.135 46.9927 79.932 47.8432 79.784 48.3804L80.748 48.647C80.904 48.0826 81.111 47.2104 81.369 46.0371L80.393 45.8223ZM79.784 48.3789L78.343 53.529L79.306 53.799L80.747 48.6484L79.784 48.3789Z" fill="white"/>
</svg>
