<svg width="200" height="200" viewBox="0 0 200 200" fill="none" xmlns="http://www.w3.org/2000/svg">
<rect width="200" height="200" rx="20" fill="#A5A5A5"/>
<path d="M140.669 123.267C149.7 116.404 158.68 109.565 167.545 102.72C163.972 100.76 158.337 100.852 157.881 96.3426C157.734 94.8701 158.672 92.9387 159.301 90.9035C160.925 85.624 162.78 79.2775 164.245 74.8445C161.678 75.1056 158.434 75.9167 155.053 76.4971C151.654 77.0699 147.586 78.1141 145.153 77.6756C143.313 77.3436 141.906 75.4478 141.148 73.8941C140.22 71.9906 139.83 69.5625 139.029 67.5172C134.802 71.4406 130.536 77.2828 126.301 82.3975C125.112 83.827 122.958 86.7696 120.408 85.9383C118.279 85.2489 119.163 81.8577 119.701 79.0874C121.87 67.8999 124.575 54.9027 126.536 44.3665C123.183 45.6338 120.175 49.1822 116.875 50.5052C113.701 51.775 111.337 50.6142 109.798 48.1456C108.924 46.7363 108.331 44.5693 107.444 42.4758C105.165 37.1202 102.182 29.2631 100.129 25C96.692 32.6544 93.1309 40.1896 89.9931 48.1506C87.9452 50.1073 86.5461 51.9372 83.1574 50.746C80.8206 49.9197 77.6347 47.1241 75.6146 45.7833C74.8061 45.2511 73.5794 44.1359 73.2549 44.8405C75.5513 58.2812 78.6105 70.9743 80.5646 84.7623C77.7183 88.0116 75.2522 84.2883 73.4907 82.1618C69.737 77.6326 66.2798 73.884 62.881 69.8819C62.1561 69.0227 61.7075 67.7148 60.5188 67.5172C59.0462 71.2024 58.7978 75.7038 55.5714 77.1966C53.0824 78.3524 48.5633 77.1409 44.7311 76.4945C41.3652 75.9217 38.1209 75.1969 35.5332 74.842C36.8942 79.5183 38.7166 86.1816 40.2474 91.1341C40.914 93.2936 41.9887 94.9816 41.6643 96.8065C41.4666 97.9242 40.3463 99.3233 39.5479 99.8758C37.5101 101.28 33.9541 101.214 32 102.953C40.9647 109.702 50.2767 116.33 59.102 123.026C62.0801 125.292 65.375 127.386 67.352 130.59C68.1706 136.766 64.2725 139.468 64.052 143.817C71.9953 142.023 81.1602 140.386 89.2809 138.857C91.9397 138.355 95.2777 137.116 97.2927 139.562C96.8162 152.138 96.4791 162.271 95.8733 174.997C98.4712 174.997 101.064 174.997 103.657 174.997C103.363 164.342 102.666 151.289 102.24 139.331C104.557 137.299 107.555 138.338 110.252 138.855C118.783 140.492 127.669 142.031 135.711 143.815C134.86 139.007 131.476 136.716 132.178 130.351C134.29 127.254 137.767 125.477 140.669 123.267Z" fill="black"/>
<path d="M37.9709 132H23.1413L45.7372 66.5455H63.571L86.1349 132H71.3054L54.9098 81.5028H54.3984L37.9709 132ZM37.044 106.272H72.0724V117.075H37.044V106.272ZM148.689 89.4609H134.691C134.435 87.6499 133.913 86.0412 133.124 84.6349C132.336 83.2074 131.324 81.9929 130.088 80.9915C128.852 79.9901 127.425 79.223 125.806 78.6903C124.208 78.1577 122.471 77.8913 120.596 77.8913C117.208 77.8913 114.257 78.733 111.743 80.4162C109.229 82.0781 107.279 84.5071 105.894 87.7031C104.509 90.8778 103.817 94.7344 103.817 99.2727C103.817 103.939 104.509 107.859 105.894 111.034C107.301 114.209 109.261 116.606 111.775 118.225C114.289 119.844 117.198 120.654 120.5 120.654C122.354 120.654 124.069 120.409 125.646 119.919C127.244 119.429 128.661 118.715 129.896 117.778C131.132 116.819 132.155 115.658 132.965 114.294C133.796 112.93 134.371 111.375 134.691 109.628L148.689 109.692C148.327 112.696 147.421 115.594 145.972 118.385C144.545 121.155 142.617 123.637 140.188 125.832C137.78 128.005 134.904 129.731 131.558 131.009C128.235 132.266 124.474 132.895 120.276 132.895C114.438 132.895 109.218 131.574 104.616 128.932C100.035 126.29 96.4128 122.465 93.7495 117.458C91.1074 112.451 89.7864 106.389 89.7864 99.2727C89.7864 92.1349 91.1287 86.0625 93.8134 81.0554C96.498 76.0483 100.142 72.2344 104.744 69.6136C109.346 66.9716 114.524 65.6506 120.276 65.6506C124.069 65.6506 127.585 66.1832 130.823 67.2486C134.083 68.3139 136.97 69.8693 139.485 71.9148C141.999 73.9389 144.044 76.4212 145.621 79.3615C147.219 82.3018 148.242 85.6683 148.689 89.4609ZM172.452 66.5455V132H158.613V66.5455H172.452Z" fill="white"/>
</svg>