<svg width="25" height="25" viewBox="0 0 100 100" fill="none" xmlns="http://www.w3.org/2000/svg">
	<g clip-path="url(#clip0_1_2)">
		<path d="M90 0H10C4.47715 0 0 4.47715 0 10V90C0 95.5229 4.47715 100 10 100H90C95.5229 100 100 95.5229 100 90V10C100 4.47715 95.5229 0 90 0Z" fill="white"/>
		<path d="M8 54V24.8H16.68C18.6533 24.8 20.36 25.1733 21.8 25.92C23.2667 26.6667 24.4 27.72 25.2 29.08C26 30.44 26.4 32.0533 26.4 33.92V44.84C26.4 46.68 26 48.2933 25.2 49.68C24.4 51.04 23.2667 52.1067 21.8 52.88C20.36 53.6267 18.6533 54 16.68 54H8ZM13 49.4H16.68C18.12 49.4 19.2667 49 20.12 48.2C20.9733 47.3733 21.4 46.2533 21.4 44.84V33.92C21.4 32.5333 20.9733 31.44 20.12 30.64C19.2667 29.8133 18.12 29.4 16.68 29.4H13V49.4ZM38.9844 54.4C37.1177 54.4 35.491 54.0533 34.1044 53.36C32.7444 52.64 31.691 51.64 30.9444 50.36C30.2244 49.0533 29.8644 47.52 29.8644 45.76V33.04C29.8644 31.28 30.2244 29.76 30.9444 28.48C31.691 27.1733 32.7444 26.1733 34.1044 25.48C35.491 24.76 37.1177 24.4 38.9844 24.4C40.8777 24.4 42.5044 24.76 43.8644 25.48C45.2244 26.1733 46.2644 27.1733 46.9844 28.48C47.731 29.76 48.1044 31.2667 48.1044 33V45.76C48.1044 47.52 47.731 49.0533 46.9844 50.36C46.2644 51.64 45.2244 52.64 43.8644 53.36C42.5044 54.0533 40.8777 54.4 38.9844 54.4ZM38.9844 50C40.3444 50 41.371 49.64 42.0644 48.92C42.7577 48.1733 43.1044 47.12 43.1044 45.76V33.04C43.1044 31.6533 42.7577 30.6 42.0644 29.88C41.371 29.16 40.3444 28.8 38.9844 28.8C37.6244 28.8 36.5977 29.16 35.9044 29.88C35.211 30.6 34.8644 31.6533 34.8644 33.04V45.76C34.8644 47.12 35.211 48.1733 35.9044 48.92C36.6244 49.64 37.651 50 38.9844 50ZM61.1288 54.4C59.2621 54.4 57.6221 54.0533 56.2088 53.36C54.8221 52.64 53.7421 51.64 52.9688 50.36C52.2221 49.0533 51.8488 47.52 51.8488 45.76V33.04C51.8488 31.2533 52.2221 29.72 52.9688 28.44C53.7421 27.16 54.8221 26.1733 56.2088 25.48C57.6221 24.76 59.2621 24.4 61.1288 24.4C63.0221 24.4 64.6488 24.76 66.0088 25.48C67.3954 26.1733 68.4754 27.16 69.2488 28.44C70.0221 29.72 70.4088 31.2533 70.4088 33.04H65.3688C65.3688 31.6533 64.9954 30.6 64.2488 29.88C63.5288 29.16 62.4888 28.8 61.1288 28.8C59.7688 28.8 58.7154 29.16 57.9688 29.88C57.2221 30.6 56.8488 31.64 56.8488 33V45.76C56.8488 47.12 57.2221 48.1733 57.9688 48.92C58.7154 49.64 59.7688 50 61.1288 50C62.4888 50 63.5288 49.64 64.2488 48.92C64.9954 48.1733 65.3688 47.12 65.3688 45.76H70.4088C70.4088 47.4933 70.0221 49.0133 69.2488 50.32C68.4754 51.6267 67.3954 52.64 66.0088 53.36C64.6488 54.0533 63.0221 54.4 61.1288 54.4ZM73.9931 54V24.8H78.9931V36.6H82.4731L87.9531 24.8H93.3931L86.8731 38.8L93.7131 54H88.1531L82.3931 41.16H78.9931V54H73.9931Z" fill="black"/>
		<path d="M41.36 90V85.6H48.96V65.24L41.32 70.92V65.64L48.04 60.8H53.96V85.6H60.08V90H41.36Z" fill="black"/>
		<path d="M90 1H10C5.02944 1 1 5.02944 1 10V90C1 94.9706 5.02944 99 10 99H90C94.9706 99 99 94.9706 99 90V10C99 5.02944 94.9706 1 90 1Z" stroke="black" stroke-width="3"/>
	</g>
	<defs>
		<clipPath id="clip0_1_2">
			<rect width="100" height="100" fill="white"/>
		</clipPath>
	</defs>
</svg>
