<?xml version="1.0" encoding="iso-8859-1"?>
<!-- Uploaded to: SVG Repo, www.svgrepo.com, Generator: SVG Repo Mixer Tools -->
<svg fill="#000000" version="1.1" id="Layer_1" xmlns="http://www.w3.org/2000/svg" xmlns:xlink="http://www.w3.org/1999/xlink" 
	 viewBox="0 0 496 496" xml:space="preserve">
<g>
	<g>
		<g>
			<path d="M256,160V0h-43.744l-47.08,56.496l31.096,31.088l-83.144,72.064l33.344-66.688l-40-24L140.944,0H0v160
				c0,61.448,44.24,114.248,104,125.616V448H75.776c-25.12,0-47.696,13.952-58.936,36.424L11.056,496H232h12.944H496V160H256z
				 M288,176h48v96h-48V176z M39.128,480c9.288-10.096,22.432-16,36.656-16H120V271.816l-6.944-0.928
				C57.728,263.488,16,215.824,16,160V16h99.056l-29.52,59.048l40,24L62.872,224.36L219.728,88.424l-32.904-32.912L219.744,16H240
				v144c0,55.824-41.728,103.488-97.056,110.88L136,271.816V464h44.224c14.224,0,27.368,5.904,36.656,16H39.128z M480,480H236.552
				c-11.88-19.8-32.944-32-56.328-32H152V285.616c54.488-10.36,95.96-55.208,102.872-109.616H272v112h80V176h128V480z"/>
			<rect x="448" y="448" width="16" height="16"/>
			<rect x="416" y="448" width="16" height="16"/>
			<rect x="384" y="448" width="16" height="16"/>
			<rect x="448" y="416" width="16" height="16"/>
			<rect x="448" y="384" width="16" height="16"/>
			<rect x="416" y="416" width="16" height="16"/>
		</g>
	</g>
</g>
</svg>