<svg width="25" height="25" viewBox="0 0 104 104" fill="none" xmlns="http://www.w3.org/2000/svg">
	<path d="M91.64 2H12.36C6.63833 2 2 6.63833 2 12.36V91.64C2 97.3617 6.63833 102 12.36 102H91.64C97.3617 102 102 97.3617 102 91.64V12.36C102 6.63833 97.3617 2 91.64 2Z" fill="#ffffff" stroke="black" stroke-width="3" stroke-miterlimit="10"/>
	<path d="M32.604 87.3279C32.6054 87.3235 32.6071 87.3205 32.6084 87.3158C33.3282 87.8988 34.0753 88.4505 34.8628 88.9509C34.1356 87.914 33.6064 86.7358 33.3133 85.4179C33.2503 85.1382 33.1751 84.8664 33.1359 84.5732C33.0398 83.8714 31.6812 76.5812 33.7595 69.357C34.7467 65.9261 36.5007 62.5086 39.5483 59.8201C39.5483 59.8201 39.419 72.5897 47.8048 80.6072C47.8048 80.6072 47.5282 76.1302 52.1388 67.4137C57.0501 58.1278 53.3891 45.7326 53.3891 45.7326C53.3891 45.7326 61.0159 52.859 64.9413 63.5066C66.9536 60.9682 68.4368 59.7074 68.216 60.2785C66.8168 63.9019 67.5413 66.5964 68.7029 69.2669C70.0449 72.3493 71.9715 75.4 71.9234 79.8078C71.8994 82.0426 70.8174 84.3599 69.2784 86.5571C68.8186 87.2138 68.321 87.8571 67.7922 88.4851C68.4114 88.1184 69.0018 87.7291 69.5611 87.3144C69.5624 87.3188 69.5641 87.3219 69.5655 87.3266C69.5655 87.3266 83.7671 77.9099 83.8572 69.6819C83.9473 61.4539 77.1367 57.9584 80.1498 50.1526C80.4294 49.4298 77.9783 51.6405 75.1708 55.68C68.4943 26.4937 39.6942 8 39.6942 8C39.6942 8 52.826 23.0869 47.9672 38.0956C43.1101 53.1043 46.0751 62.1242 46.0751 62.1242C37.6338 50.5856 41.9665 31.8949 41.9665 31.8949C34.0242 38.9011 29.6374 47.5783 27.2615 54.9092C24.8615 51.3595 22.8702 49.4779 23.1302 50.1543C26.1433 57.9601 19.3324 61.4556 19.4228 69.6836C19.5142 77.9099 32.604 87.3279 32.604 87.3279Z" fill="#010002"/>
	<path d="M56.7662 95H60.9516H83.2624V91.8035H64.6485H60.7516H59.3902H56.0119H40.994H37.769H19.1416V95H49.1665H56.7662Z" fill="#010002"/>
</svg>
