<svg width="25" height="25" viewBox="0 0 200 200" fill="none" xmlns="http://www.w3.org/2000/svg">
<rect x="1" y="1" width="198" height="198" rx="19" fill="white"/>
<rect x="1" y="1" width="198" height="198" rx="19" stroke="black" stroke-width="2"/>
<path d="M173.396 96.3311L163.078 91.6123L159.541 80.8662C149.81 51.2956 121.321 32.0978 90.2567 34.1834C73.0229 35.34 57.0135 42.9044 45.1782 55.4839C33.3385 68.0677 26.7705 84.5072 26.6843 101.774C26.6047 117.753 25.8011 123.467 25.1413 125.446C24.7153 126.724 25.2793 128.122 26.4728 128.746C27.0977 129.073 39.0798 135.165 62.4905 135.165C67.1243 135.165 72.2111 134.924 77.7423 134.354V163.227C77.7423 164.743 78.971 165.971 80.4866 165.971H92.009C93.5245 165.971 94.7532 164.743 94.7532 163.227V127.746L104.934 117.565C107.024 115.475 109.798 114.196 112.745 113.965L172.47 109.275C173.899 109.163 175 107.971 175 106.539V98.8266C174.999 97.7531 174.373 96.7776 173.396 96.3311ZM30.9417 124.706C31.7137 120.396 32.118 112.845 32.1731 101.801C32.2522 85.9275 38.2902 70.8139 49.1754 59.245C60.0583 47.6786 74.7784 40.723 90.6247 39.6598C119.182 37.7418 145.38 55.3933 154.328 82.5824L157.213 91.3465C141.806 93.2444 110.293 94.0448 79.7451 94.8205C73.4735 94.9796 67.2691 95.1375 61.2902 95.3025C54.3935 95.4923 48.1533 99.419 45.0056 105.549L34.5297 125.937C33.03 125.479 31.8312 125.052 30.9417 124.706ZM89.2644 160.483H83.2305V133.695C83.4039 133.671 83.5718 133.652 83.7461 133.628C85.6674 133.36 87.5348 132.775 89.2644 131.913V160.483ZM169.511 104.002L112.315 108.493C108.066 108.826 104.066 110.67 101.052 113.684L90.0675 124.669C88.1667 126.57 85.653 127.82 82.9894 128.192C63.3073 130.932 48.922 129.337 39.9719 127.356L49.8879 108.056C52.1206 103.708 56.5479 100.923 61.442 100.789C67.4173 100.623 73.6171 100.466 79.8845 100.307C112.287 99.4843 145.77 98.6341 160.452 96.4462L169.511 100.589V104.002H169.511Z" fill="black"/>
<path d="M93.9591 87.3366C95.4747 87.3366 96.7033 86.108 96.7033 84.5924C96.7033 83.0768 95.4747 81.8481 93.9591 81.8481C92.4435 81.8481 91.2148 83.0768 91.2148 84.5924C91.2148 86.108 92.4435 87.3366 93.9591 87.3366Z" fill="black"/>
</svg>
