<svg width="200" height="200" viewBox="0 0 200 200" fill="none" xmlns="http://www.w3.org/2000/svg">
<rect width="200" height="200" rx="20" fill="transparent"/>
<g clip-path="url(#clip0_75_2577)">
<path d="M57.373 63.6133C67.6562 51.5137 82.8613 43.75 100 43.75C131.084 43.75 156.25 68.916 156.25 100H175C175 58.5742 141.426 25 100 25C77.6758 25 57.7246 34.7852 44.0137 50.2539L25 31.2402V81.25H75.0098L57.373 63.6133ZM142.627 136.387C132.314 148.486 117.139 156.25 100 156.25C68.916 156.25 43.75 131.084 43.75 100H25C25 141.426 58.5742 175 100 175C122.324 175 142.275 165.215 155.986 149.746L175 168.76V118.75H124.99L142.627 136.387Z" fill="black"/>
</g>
<defs>
<clipPath id="clip0_75_2577">
<rect width="150" height="150" fill="white" transform="translate(25 25)"/>
</clipPath>
</defs>
</svg>