<svg width="200" height="200" viewBox="0 0 200 200" fill="none" xmlns="http://www.w3.org/2000/svg">
<rect width="200" height="200" rx="20" fill="transparent"/>
<path d="M66.0156 125.158V113.917C66.0156 111.977 64.4406 110.402 62.5 110.402C60.5594 110.402 58.9844 111.977 58.9844 113.917V125.158C53.5281 126.742 49.6094 131.692 49.6094 137.561C49.6094 144.681 55.3797 150.452 62.5 150.452C69.6203 150.452 75.3906 144.681 75.3906 137.561C75.3906 131.692 71.4719 126.742 66.1047 125.181L66.0156 125.158ZM163.895 103.703L144.944 114.236L120.283 100L144.93 85.7688L163.923 96.3017C164.416 96.5782 165.002 96.7423 165.625 96.7423C167.566 96.7423 169.141 95.1673 169.141 93.2267C169.141 91.9095 168.419 90.761 167.345 90.161L167.327 90.1517L152.031 81.6673L164.242 74.6173C165.33 74.0032 166.047 72.8595 166.047 71.547C166.047 69.6063 164.472 68.0313 162.531 68.0313C161.866 68.0313 161.242 68.2188 160.708 68.5376L160.722 68.5282L148.525 75.5688L148.802 58.0892C148.802 58.0751 148.802 58.0563 148.802 58.0376C148.802 56.1157 147.259 54.5501 145.342 54.5173C145.314 54.5173 145.272 54.5173 145.239 54.5173C143.327 54.5173 141.775 56.0642 141.766 57.9767L141.423 79.661L116.753 93.9017V65.4392L135.377 54.2829C136.403 53.6595 137.078 52.5438 137.078 51.2688C137.078 49.3282 135.503 47.7532 133.563 47.7532C132.902 47.7532 132.278 47.936 131.748 48.2548L131.762 48.2454L116.748 57.2407V43.1407C116.748 41.2001 115.173 39.6251 113.233 39.6251C111.292 39.6251 109.717 41.2001 109.717 43.1407V57.2313L94.7406 48.236C94.225 47.922 93.6016 47.7345 92.9312 47.7345C90.9906 47.7345 89.4203 49.3095 89.4203 51.2454C89.4203 52.5157 90.0953 53.6313 91.1078 54.2501L91.1219 54.2595L109.717 65.4298V93.897L84.7516 79.4829V53.1485C84.7516 23.8704 40.2203 23.8704 40.2203 53.1485V115.202C34.4547 120.916 30.8828 128.842 30.8828 137.599C30.8828 155.013 45.0016 169.131 62.4109 169.131C74.8094 169.131 85.5344 161.978 90.6859 151.572L90.7703 151.389C91.3422 151.895 92.0875 152.219 92.9125 152.252H92.9172C93.5828 152.252 94.2062 152.064 94.7359 151.741L94.7219 151.75L109.717 142.745V156.85C109.717 158.791 111.292 160.366 113.233 160.366C115.173 160.366 116.748 158.791 116.748 156.85V142.75L131.753 151.731C132.269 152.045 132.892 152.228 133.558 152.228C135.498 152.228 137.069 150.658 137.069 148.717C137.069 147.442 136.389 146.331 135.377 145.713L135.363 145.703L116.748 134.561V106.08L141.391 120.311L141.77 142.033C141.808 143.945 143.369 145.483 145.286 145.483H145.352C147.264 145.445 148.802 143.884 148.802 141.967C148.802 141.944 148.802 141.925 148.802 141.902V141.906L148.497 124.417L160.713 131.472C161.214 131.767 161.823 131.941 162.466 131.941C163.764 131.941 164.894 131.242 165.508 130.202L165.517 130.183C165.813 129.677 165.986 129.072 165.986 128.425C165.986 127.127 165.283 125.997 164.242 125.388L164.223 125.378L152.031 118.338L167.298 109.849C168.386 109.234 169.103 108.091 169.103 106.774C169.103 104.828 167.528 103.253 165.583 103.253C164.955 103.253 164.364 103.417 163.853 103.708L163.872 103.699L163.895 103.703ZM106.211 100L84.7656 112.38V87.6157L106.211 100ZM62.5 162.109C48.9062 162.109 37.8906 151.089 37.8906 137.495C37.8906 130.216 41.05 123.677 46.0703 119.172L46.0937 119.153L46.1219 119.097C46.7312 118.525 47.1297 117.738 47.2047 116.861V116.847C47.2094 116.781 47.2375 116.734 47.2422 116.669L47.2703 116.533V53.1579C47.2562 52.9095 47.2469 52.6188 47.2469 52.3235C47.2469 44.336 53.7203 37.8626 61.7078 37.8626C61.9891 37.8626 62.2703 37.872 62.5469 37.886H62.5094C62.7484 37.872 63.0297 37.8626 63.3062 37.8626C71.2937 37.8626 77.7672 44.336 77.7672 52.3235C77.7672 52.6188 77.7578 52.9095 77.7391 53.1954V53.1579V116.533L77.7672 116.669C77.7672 116.734 77.7953 116.781 77.8047 116.847C77.8797 117.738 78.2781 118.525 78.8828 119.092L78.9109 119.149C83.9547 123.677 87.1141 130.216 87.1141 137.491C87.1141 151.084 76.0984 162.1 62.5047 162.105L62.5 162.109ZM93.3297 144.4C93.8453 142.281 94.1406 139.853 94.1406 137.355C94.1406 130.314 91.7969 123.822 87.85 118.614L87.9062 118.694L109.731 106.094V134.552L93.3297 144.4Z" fill="black"/>
</svg>