<svg width="25" height="25" viewBox="0 0 102 102" fill="none" xmlns="http://www.w3.org/2000/svg">
<g clip-path="url(#clip0_2_2)">
<path d="M90.78 1H11.22C5.57565 1 1 5.57565 1 11.22V90.78C1 96.4243 5.57565 101 11.22 101H90.78C96.4243 101 101 96.4243 101 90.78V11.22C101 5.57565 96.4243 1 90.78 1Z" stroke="#1D1D1B" stroke-width="3" stroke-miterlimit="10"/>
<path d="M51.5 90C72.763 90 90 72.763 90 51.5C90 30.237 72.763 13 51.5 13C30.237 13 13 30.237 13 51.5C13 72.763 30.237 90 51.5 90Z" stroke="#ACADB3" stroke-width="3" stroke-miterlimit="10"/>
<path d="M51 77C65.3594 77 77 65.3594 77 51C77 36.6406 65.3594 25 51 25C36.6406 25 25 36.6406 25 51C25 65.3594 36.6406 77 51 77Z" stroke="#CB5676" stroke-width="2" stroke-miterlimit="10"/>
<path d="M51 71.5C62.3218 71.5 71.5 62.3218 71.5 51C71.5 39.6782 62.3218 30.5 51 30.5C39.6782 30.5 30.5 39.6782 30.5 51C30.5 62.3218 39.6782 71.5 51 71.5Z" fill="#52799E"/>
<path d="M14.9288 58.61V38.9577H8.42492V34.3522H27.0753V38.9577H20.4484V58.61H14.9288Z" fill="black"/>
<path d="M14.9288 58.61H14.4288V59.11H14.9288V58.61ZM14.9288 38.9577H15.4288V38.4577H14.9288V38.9577ZM8.42492 38.9577H7.92492V39.4577H8.42492V38.9577ZM8.42492 34.3522V33.8522H7.92492V34.3522H8.42492ZM27.0753 34.3522H27.5753V33.8522H27.0753V34.3522ZM27.0753 38.9577V39.4577H27.5753V38.9577H27.0753ZM20.4484 38.9577V38.4577H19.9484V38.9577H20.4484ZM20.4484 58.61V59.11H20.9484V58.61H20.4484ZM15.4288 58.61V38.9577H14.4288V58.61H15.4288ZM14.9288 38.4577H8.42492V39.4577H14.9288V38.4577ZM8.92492 38.9577V34.3522H7.92492V38.9577H8.92492ZM8.42492 34.8522H27.0753V33.8522H8.42492V34.8522ZM26.5753 34.3522V38.9577H27.5753V34.3522H26.5753ZM27.0753 38.4577H20.4484V39.4577H27.0753V38.4577ZM19.9484 38.9577V58.61H20.9484V38.9577H19.9484ZM20.4484 58.11H14.9288V59.11H20.4484V58.11Z" fill="white"/>
<path d="M41.0147 58.01H35.003L29.2549 33.7522H35.126L36.9541 43.7541C37.1768 44.9495 37.6573 47.7678 38.3955 52.2092H38.4659C38.8057 50.0178 39.333 47.176 40.0479 43.6838L42.1045 33.7522H47.9405L49.8741 43.9651C50.378 46.6135 50.8116 49.3264 51.1748 52.1038H51.2452C51.3975 50.9319 51.8662 48.1252 52.6514 43.6838L54.6377 33.7522H60.21L53.9522 58.01H48.0108L45.9541 47.5686C45.3916 44.6858 45.0049 42.1897 44.794 40.0803H44.7237C44.208 43.2913 43.7393 45.7873 43.3174 47.5686L41.0147 58.01Z" fill="black"/>
<path d="M41.0147 58.01V58.51H41.4164L41.503 58.1177L41.0147 58.01ZM35.003 58.01L34.5164 58.1253L34.6076 58.51H35.003V58.01ZM29.2549 33.7522V33.2522H28.6226L28.7684 33.8675L29.2549 33.7522ZM35.126 33.7522L35.6179 33.6623L35.5429 33.2522H35.126V33.7522ZM36.9541 43.7541L36.4623 43.844L36.4626 43.8457L36.9541 43.7541ZM38.3955 52.2092L37.9023 52.2912L37.9718 52.7092H38.3955V52.2092ZM38.4659 52.2092V52.7092H38.8943L38.96 52.2858L38.4659 52.2092ZM40.0479 43.6838L39.5583 43.5824L39.558 43.5836L40.0479 43.6838ZM42.1045 33.7522V33.2522H41.6975L41.6149 33.6508L42.1045 33.7522ZM47.9405 33.7522L48.4317 33.6592L48.3547 33.2522H47.9405V33.7522ZM49.8741 43.9651L49.3828 44.0581L49.3829 44.0585L49.8741 43.9651ZM51.1748 52.1038L50.6791 52.1686L50.736 52.6038H51.1748V52.1038ZM51.2452 52.1038V52.6038H51.6844L51.741 52.1682L51.2452 52.1038ZM52.6514 43.6838L52.161 43.5857L52.159 43.5968L52.6514 43.6838ZM54.6377 33.7522V33.2522H54.2278L54.1474 33.6541L54.6377 33.7522ZM60.21 33.7522L60.6941 33.8771L60.8554 33.2522H60.21V33.7522ZM53.9522 58.01V58.51H54.3396L54.4363 58.1349L53.9522 58.01ZM48.0108 58.01L47.5202 58.1066L47.5997 58.51H48.0108V58.01ZM45.9541 47.5686L45.4634 47.6643L45.4636 47.6652L45.9541 47.5686ZM44.794 40.0803L45.2915 40.0306L45.2465 39.5803H44.794V40.0803ZM44.7237 40.0803V39.5803H44.2976L44.23 40.001L44.7237 40.0803ZM43.3174 47.5686L42.8308 47.4533L42.8292 47.4609L43.3174 47.5686ZM41.0147 57.51H35.003V58.51H41.0147V57.51ZM35.4895 57.8947L29.7414 33.6369L28.7684 33.8675L34.5164 58.1253L35.4895 57.8947ZM29.2549 34.2522H35.126V33.2522H29.2549V34.2522ZM34.6342 33.8421L36.4623 43.844L37.446 43.6642L35.6179 33.6623L34.6342 33.8421ZM36.4626 43.8457C36.6842 45.0352 37.1638 47.8483 37.9023 52.2912L38.8888 52.1272C38.1508 47.6874 37.6694 44.8637 37.4457 43.6626L36.4626 43.8457ZM38.3955 52.7092H38.4659V51.7092H38.3955V52.7092ZM38.96 52.2858C39.2981 50.1056 39.8237 47.2725 40.5377 43.7841L39.558 43.5836C38.8424 47.0795 38.3133 49.93 37.9718 52.1326L38.96 52.2858ZM40.5375 43.7852L42.5941 33.8536L41.6149 33.6508L39.5583 43.5824L40.5375 43.7852ZM42.1045 34.2522H47.9405V33.2522H42.1045V34.2522ZM47.4492 33.8452L49.3828 44.0581L50.3653 43.8721L48.4317 33.6592L47.4492 33.8452ZM49.3829 44.0585C49.8849 46.6971 50.317 49.4005 50.6791 52.1686L51.6706 52.0389C51.3061 49.2523 50.871 46.5299 50.3652 43.8716L49.3829 44.0585ZM51.1748 52.6038H51.2452V51.6038H51.1748V52.6038ZM51.741 52.1682C51.8915 51.0101 52.3579 48.2161 53.1438 43.7709L52.159 43.5968C51.3746 48.0344 50.9035 50.8536 50.7493 52.0393L51.741 52.1682ZM53.1417 43.7819L55.128 33.8502L54.1474 33.6541L52.1611 43.5858L53.1417 43.7819ZM54.6377 34.2522H60.21V33.2522H54.6377V34.2522ZM59.7258 33.6273L53.468 57.8851L54.4363 58.1349L60.6941 33.8771L59.7258 33.6273ZM53.9522 57.51H48.0108V58.51H53.9522V57.51ZM48.5014 57.9134L46.4447 47.472L45.4636 47.6652L47.5202 58.1066L48.5014 57.9134ZM46.4449 47.4728C45.8843 44.5999 45.5004 42.1199 45.2915 40.0306L44.2965 40.1301C44.5094 42.2595 44.899 44.7716 45.4634 47.6643L46.4449 47.4728ZM44.794 39.5803H44.7237V40.5803H44.794V39.5803ZM44.23 40.001C43.7151 43.2076 43.2486 45.6897 42.8309 47.4534L43.804 47.6838C44.23 45.885 44.701 43.3749 45.2173 40.1596L44.23 40.001ZM42.8292 47.4609L40.5264 57.9023L41.503 58.1177L43.8057 47.6763L42.8292 47.4609Z" fill="white"/>
<path d="M66.023 33.9222H71.5426V58.18H66.023V33.9222Z" fill="black"/>
<path d="M66.023 33.9222V33.4222H65.523V33.9222H66.023ZM71.5426 33.9222H72.0426V33.4222H71.5426V33.9222ZM71.5426 58.18V58.68H72.0426V58.18H71.5426ZM66.023 58.18H65.523V58.68H66.023V58.18ZM66.023 34.4222H71.5426V33.4222H66.023V34.4222ZM71.0426 33.9222V58.18H72.0426V33.9222H71.0426ZM71.5426 57.68H66.023V58.68H71.5426V57.68ZM66.523 58.18V33.9222H65.523V58.18H66.523Z" fill="white"/>
<path d="M92.5911 52.5654L93.4173 56.8545C92.8548 57.1357 92.0227 57.3759 90.9212 57.5752C89.8196 57.7861 88.5774 57.8916 87.1946 57.8916C85.1438 57.8916 83.304 57.5869 81.6751 56.9775C80.0579 56.3564 78.7278 55.5009 77.6848 54.4111C76.6419 53.3213 75.845 52.0439 75.2942 50.5791C74.7552 49.1142 74.4856 47.5088 74.4856 45.7627C74.4856 44.1455 74.7083 42.6455 75.1536 41.2627C75.5989 39.8681 76.22 38.6611 77.0169 37.6416C77.8255 36.622 78.7806 35.7548 79.8821 35.04C80.9837 34.3134 82.1966 33.7744 83.5208 33.4228C84.845 33.0595 86.2454 32.8779 87.722 32.8779C89.0345 32.8779 90.2181 32.9892 91.2727 33.2119C92.3391 33.4228 93.1477 33.6748 93.6985 33.9677L92.5911 38.3095C91.1966 37.7119 89.6614 37.413 87.9856 37.413C86.4973 37.413 85.179 37.7002 84.0306 38.2744C82.8938 38.8486 81.9739 39.7509 81.2708 40.9814C80.5794 42.2119 80.2337 43.7002 80.2337 45.4463C80.2337 47.8838 80.9192 49.8115 82.2903 51.2295C83.6731 52.6474 85.5833 53.3564 88.0208 53.3564C89.7786 53.3564 91.302 53.0927 92.5911 52.5654Z" fill="black"/>
<path d="M92.5911 52.5654L93.0821 52.4708L92.9666 51.8715L92.4018 52.1026L92.5911 52.5654ZM93.4173 56.8545L93.6409 57.3017L93.9799 57.1321L93.9082 56.7599L93.4173 56.8545ZM90.9212 57.5752L90.8322 57.0831L90.8271 57.0841L90.9212 57.5752ZM81.6751 56.9775L81.4958 57.4443L81.4999 57.4458L81.6751 56.9775ZM75.2942 50.5791L74.825 50.7517L74.8262 50.755L75.2942 50.5791ZM75.1536 41.2627L75.6295 41.4159L75.6299 41.4148L75.1536 41.2627ZM77.0169 37.6416L76.6251 37.3309L76.6229 37.3337L77.0169 37.6416ZM79.8821 35.04L80.1543 35.4594L80.1574 35.4574L79.8821 35.04ZM83.5208 33.4228L83.6491 33.9061L83.6531 33.905L83.5208 33.4228ZM91.2727 33.2119L91.1695 33.7011L91.1757 33.7024L91.2727 33.2119ZM93.6985 33.9677L94.183 34.0913L94.2801 33.7107L93.9333 33.5263L93.6985 33.9677ZM92.5911 38.3095L92.3941 38.7691L92.9312 38.9993L93.0756 38.4331L92.5911 38.3095ZM84.0306 38.2744L83.8069 37.8272L83.8051 37.8281L84.0306 38.2744ZM81.2708 40.9814L80.8367 40.7333L80.8349 40.7365L81.2708 40.9814ZM82.2903 51.2295L81.9309 51.577L81.9324 51.5785L82.2903 51.2295ZM92.1001 52.66L92.9263 56.949L93.9082 56.7599L93.0821 52.4708L92.1001 52.66ZM93.1937 56.4072C92.6945 56.6568 91.9173 56.8869 90.8322 57.0831L91.0102 58.0672C92.1281 57.865 93.015 57.6146 93.6409 57.3017L93.1937 56.4072ZM90.8271 57.0841C89.7627 57.2879 88.5528 57.3916 87.1946 57.3916V58.3916C88.602 58.3916 89.8765 58.2843 91.0152 58.0662L90.8271 57.0841ZM87.1946 57.3916C85.1932 57.3916 83.4141 57.0942 81.8503 56.5092L81.4999 57.4458C83.1939 58.0795 85.0945 58.3916 87.1946 58.3916V57.3916ZM81.8543 56.5107C80.2958 55.9122 79.031 55.0946 78.0461 54.0654L77.3236 54.7568C78.4246 55.9073 79.82 56.8006 81.4958 57.4443L81.8543 56.5107ZM78.0461 54.0654C77.0516 53.0262 76.2902 51.8071 75.7622 50.4031L74.8262 50.755C75.3999 52.2807 76.2322 53.6163 77.3236 54.7568L78.0461 54.0654ZM75.7635 50.4064C75.247 49.003 74.9856 47.4568 74.9856 45.7627H73.9856C73.9856 47.5607 74.2633 49.2254 74.825 50.7517L75.7635 50.4064ZM74.9856 45.7627C74.9856 44.1917 75.2019 42.744 75.6295 41.4159L74.6777 41.1094C74.2147 42.547 73.9856 44.0993 73.9856 45.7627H74.9856ZM75.6299 41.4148C76.0595 40.0693 76.6549 38.9166 77.4108 37.9495L76.6229 37.3337C75.7851 38.4055 75.1383 39.667 74.6773 41.1106L75.6299 41.4148ZM77.4086 37.9523C78.1832 36.9756 79.0978 36.145 80.1543 35.4594L79.6099 34.6206C78.4633 35.3647 77.4677 36.2685 76.6251 37.3309L77.4086 37.9523ZM80.1574 35.4574C81.2121 34.7617 82.3751 34.2443 83.6491 33.9061L83.3925 32.9396C82.0181 33.3044 80.7552 33.8652 79.6068 34.6226L80.1574 35.4574ZM83.6531 33.905C84.9311 33.5544 86.2867 33.3779 87.722 33.3779V32.3779C86.2041 32.3779 84.7589 32.5647 83.3885 32.9406L83.6531 33.905ZM87.722 33.3779C89.007 33.3779 90.1551 33.487 91.1695 33.7011L91.376 32.7227C90.281 32.4915 89.062 32.3779 87.722 32.3779V33.3779ZM91.1757 33.7024C92.2241 33.9097 92.9768 34.1502 93.4637 34.4092L93.9333 33.5263C93.3187 33.1994 92.4542 32.9359 91.3698 32.7214L91.1757 33.7024ZM93.214 33.8442L92.1066 38.186L93.0756 38.4331L94.183 34.0913L93.214 33.8442ZM92.7881 37.85C91.3251 37.223 89.722 36.913 87.9856 36.913V37.913C89.6008 37.913 91.0681 38.2008 92.3941 38.7691L92.7881 37.85ZM87.9856 36.913C86.4321 36.913 85.0351 37.2131 83.8069 37.8272L84.2542 38.7216C85.3229 38.1872 86.5626 37.913 87.9856 37.913V36.913ZM83.8051 37.8281C82.5712 38.4514 81.5827 39.4277 80.8367 40.7333L81.7049 41.2295C82.3651 40.0741 83.2165 39.2458 84.256 38.7207L83.8051 37.8281ZM80.8349 40.7365C80.0926 42.0575 79.7337 43.6345 79.7337 45.4463H80.7337C80.7337 43.7658 81.0662 42.3662 81.7067 41.2263L80.8349 40.7365ZM79.7337 45.4463C79.7337 47.9812 80.4494 50.0449 81.9309 51.577L82.6498 50.8819C81.389 49.578 80.7337 47.7863 80.7337 45.4463H79.7337ZM81.9324 51.5785C83.4301 53.1144 85.4816 53.8564 88.0208 53.8564V52.8564C85.6849 52.8564 83.9161 52.1804 82.6483 50.8804L81.9324 51.5785ZM88.0208 53.8564C89.8271 53.8564 91.4178 53.5856 92.7804 53.0282L92.4018 52.1026C91.1863 52.5999 89.73 52.8564 88.0208 52.8564V53.8564Z" fill="white"/>
</g>
<defs>
<clipPath id="clip0_2_2">
<rect width="102" height="102" fill="white"/>
</clipPath>
</defs>
</svg>
